<svg width="233" height="234" viewBox="0 0 233 234" fill="none" xmlns="http://www.w3.org/2000/svg">
<g filter="url(#filter0_d_103_79)">
<g clip-path="url(#clip0_103_79)">
<rect x="31.7327" y="42.3005" width="158.497" height="158.497" rx="79.2484" transform="rotate(-4 31.7327 42.3005)" fill="url(#paint0_linear_103_79)"/>
<g opacity="0.5" filter="url(#filter1_i_103_79)">
<path d="M112.408 143.656C108.347 146.045 104.764 144.387 102.312 140.22C99.8598 136.053 101.164 130.738 105.224 128.349C109.284 125.96 114.063 127.435 116.515 131.603C118.967 135.77 116.468 141.267 112.408 143.656Z" fill="#C0B1E2"/>
</g>
<g opacity="0.7" filter="url(#filter2_i_103_79)">
<path d="M112.282 140.344C109.718 141.853 105.642 141.453 104.133 138.888C102.624 136.324 104.105 131.872 106.67 130.363C109.234 128.854 112.684 130.404 114.193 132.969C115.702 135.533 114.847 138.835 112.282 140.344Z" fill="#A896D3"/>
</g>
<g opacity="0.5" filter="url(#filter3_i_103_79)">
<path d="M129.112 187.25C125.374 189.45 118.616 186.052 116.416 182.314C114.216 178.576 116.376 172.086 120.114 169.886C123.853 167.686 128.882 169.946 131.082 173.684C133.282 177.423 132.851 185.05 129.112 187.25Z" fill="#A896D3"/>
</g>
<g opacity="0.6" filter="url(#filter4_i_103_79)">
<path d="M44.1125 215.63C48.9325 217.624 56.4118 212.447 58.4055 207.627C60.3993 202.807 56.7413 195.44 51.9213 193.447C47.1014 191.453 41.4901 194.985 39.4964 199.805C37.5026 204.625 39.2926 213.636 44.1125 215.63Z" fill="#C0B1E2"/>
</g>
<g opacity="0.7" filter="url(#filter5_i_103_79)">
<path d="M46.5161 211.639C50.0048 213.082 55.4184 209.335 56.8615 205.847C58.3046 202.358 55.6569 197.026 52.1682 195.583C48.6794 194.139 44.6179 196.696 43.1748 200.185C41.7317 203.674 43.0273 210.196 46.5161 211.639Z" fill="#A896D3"/>
</g>
<g opacity="0.5" filter="url(#filter6_i_103_79)">
<path d="M159.526 96.6261C153.9 102.719 149.721 99.4049 143.467 93.6313C137.214 87.8578 134.003 80.583 139.628 74.4902C145.254 68.3974 154.057 68.4512 160.31 74.2247C166.563 79.9983 165.151 90.5334 159.526 96.6261Z" fill="#C0B1E2"/>
</g>
<g opacity="0.7" filter="url(#filter7_i_103_79)">
<path d="M157.628 91.1094C154.075 94.9574 149.415 93.7451 145.567 90.1921C141.719 86.6392 139.537 80.9966 143.09 77.1485C146.643 73.3004 153.245 74.1556 157.093 77.7086C160.941 81.2616 161.181 87.2613 157.628 91.1094Z" fill="#C0B1E2"/>
</g>
<g opacity="0.5" filter="url(#filter8_i_103_79)">
<path d="M171.364 195.749C163.229 196.866 162.119 191.702 160.973 183.353C159.826 175.003 161.95 167.42 170.085 166.303C178.22 165.186 184.916 170.768 186.063 179.117C187.21 187.467 179.499 194.632 171.364 195.749Z" fill="#E6D7FF"/>
</g>
<g opacity="0.7" filter="url(#filter9_i_103_79)">
<path d="M173.385 190.337C168.247 191.042 165.448 187.183 164.742 182.045C164.037 176.907 165.92 171.219 171.058 170.514C176.196 169.808 180.706 174.618 181.411 179.756C182.117 184.894 178.523 189.631 173.385 190.337Z" fill="#C0B1E2"/>
</g>
<g opacity="0.7" filter="url(#filter10_i_103_79)">
<path d="M72.3563 165.269C70.6462 167.121 68.4036 166.537 66.5514 164.827C64.6993 163.117 63.6489 160.401 65.359 158.549C67.0691 156.697 70.247 157.109 72.0991 158.819C73.9513 160.529 74.0664 163.417 72.3563 165.269Z" fill="#A896D3"/>
</g>
<g opacity="0.7" filter="url(#filter11_i_103_79)">
<path d="M191.037 123.836C187.163 125.804 183.888 123.516 181.92 119.641C179.953 115.767 179.884 110.747 183.758 108.78C187.633 106.812 192.522 109.383 194.49 113.258C196.458 117.132 194.912 121.868 191.037 123.836Z" fill="#E6D7FF"/>
</g>
<g opacity="0.7" filter="url(#filter12_i_103_79)">
<path d="M197.284 99.5668C193.41 101.535 190.135 99.2465 188.167 95.3719C186.2 91.4974 186.131 86.4781 190.005 84.5103C193.88 82.5426 198.769 85.1137 200.737 88.9883C202.705 92.8629 201.159 97.599 197.284 99.5668Z" fill="#E6D7FF"/>
</g>
<g opacity="0.5" filter="url(#filter13_i_103_79)">
<path d="M67.8017 104.138C63.6227 110.293 65.87 116.109 72.1873 120.398C78.5045 124.687 87.0134 123.175 91.1924 117.019C95.3714 110.864 93.5331 103.183 87.2159 98.8941C80.8986 94.6051 71.9807 97.9827 67.8017 104.138Z" fill="#C0B1E2"/>
</g>
<g opacity="0.7" filter="url(#filter14_i_103_79)">
<path d="M73.0084 104.673C70.369 108.561 70.5843 115.025 74.4718 117.665C78.3594 120.304 85.526 118.423 88.1653 114.536C90.8047 110.648 88.7139 105.053 84.8264 102.413C80.9389 99.7741 75.6478 100.786 73.0084 104.673Z" fill="#A896D3"/>
</g>
<g opacity="0.7" filter="url(#filter15_i_103_79)">
<path d="M43.5154 114.573C42.703 115.769 42.7693 117.759 43.9658 118.571C45.1624 119.384 47.3683 118.805 48.1807 117.608C48.9931 116.412 48.3495 114.689 47.1529 113.877C45.9564 113.065 44.3278 113.376 43.5154 114.573Z" fill="#A896D3"/>
</g>
<g opacity="0.7" filter="url(#filter16_i_103_79)">
<path d="M76.0163 77.1943C75.24 78.3377 75.3034 80.239 76.4467 81.0153C77.5901 81.7916 79.698 81.2384 80.4743 80.095C81.2505 78.9516 80.6356 77.3059 79.4922 76.5296C78.3488 75.7534 76.7926 76.0509 76.0163 77.1943Z" fill="#C0B1E2"/>
</g>
<g opacity="0.7" filter="url(#filter17_i_103_79)">
<path d="M42.3672 50.4186C41.5909 51.562 41.6542 53.4633 42.7976 54.2396C43.941 55.0159 46.0488 54.4627 46.8251 53.3193C47.6014 52.1759 46.9865 50.5302 45.8431 49.7539C44.6997 48.9776 43.1435 49.2752 42.3672 50.4186Z" fill="#A896D3"/>
</g>
<g opacity="0.7" filter="url(#filter18_i_103_79)">
<path d="M185.617 190.595C184.84 191.738 184.904 193.639 186.047 194.415C187.19 195.192 189.298 194.639 190.075 193.495C190.851 192.352 190.236 190.706 189.092 189.93C187.949 189.154 186.393 189.451 185.617 190.595Z" fill="#C0B1E2"/>
</g>
<g opacity="0.7" filter="url(#filter19_i_103_79)">
<path d="M188.676 158.604C187.899 159.747 187.963 161.648 189.106 162.425C190.25 163.201 192.357 162.648 193.134 161.504C193.91 160.361 193.295 158.715 192.152 157.939C191.008 157.163 189.452 157.46 188.676 158.604Z" fill="#C0B1E2"/>
</g>
<g opacity="0.7" filter="url(#filter20_i_103_79)">
<path d="M80.563 198.038C79.7867 199.181 79.8501 201.082 80.9935 201.859C82.1369 202.635 84.2447 202.082 85.021 200.938C85.7973 199.795 85.1823 198.149 84.0389 197.373C82.8955 196.597 81.3393 196.894 80.563 198.038Z" fill="#A896D3"/>
</g>
<g opacity="0.8">
<g opacity="0.5" filter="url(#filter21_i_103_79)">
<path d="M145.478 122.147C135.246 128.081 134.453 137.963 140.544 148.464C146.634 158.965 159.866 162.668 170.098 156.733C180.33 150.799 182.995 138.529 176.905 128.027C170.814 117.526 155.71 116.213 145.478 122.147Z" fill="#E6D7FF"/>
</g>
<g opacity="0.7" filter="url(#filter22_i_103_79)">
<path d="M152.567 126.505C146.105 130.253 141.954 139.661 145.702 146.124C149.45 152.586 161.013 154.835 167.476 151.087C173.938 147.339 174.803 137.882 171.055 131.42C167.307 124.958 159.03 122.757 152.567 126.505Z" fill="#C0B1E2"/>
</g>
<g opacity="0.7" filter="url(#filter23_i_103_79)">
<path d="M151.843 132.966C148.241 135.055 145.927 140.299 148.016 143.902C150.105 147.504 156.551 148.758 160.153 146.668C163.756 144.579 164.237 139.308 162.148 135.705C160.059 132.103 155.445 130.876 151.843 132.966Z" fill="#A896D3"/>
</g>
<g opacity="0.7" filter="url(#filter24_i_103_79)">
<path d="M135.666 105.36C133.314 106.724 131.803 110.149 133.167 112.501C134.532 114.853 138.74 115.671 141.092 114.307C143.444 112.943 143.759 109.501 142.395 107.149C141.031 104.797 138.018 103.996 135.666 105.36Z" fill="#C0B1E2"/>
</g>
</g>
<g opacity="0.8">
<g opacity="0.5" filter="url(#filter25_i_103_79)">
<path d="M121.056 31.95C119.044 19.4519 109.473 14.8748 96.6461 16.9391C83.8191 19.0033 75.0513 30.8085 77.0626 43.3065C79.074 55.8046 90.3156 63.1677 103.143 61.1034C115.97 59.0391 123.067 44.4481 121.056 31.95Z" fill="#E6D7FF"/>
</g>
<g opacity="0.7" filter="url(#filter26_i_103_79)">
<path d="M113.985 37.3649C112.715 29.4714 104.902 21.7201 97.0089 22.9905C89.1153 24.2608 82.4388 34.9547 83.7091 42.8482C84.9795 50.7417 94.099 55.2279 101.992 53.9575C109.886 52.6872 115.255 45.2584 113.985 37.3649Z" fill="#C0B1E2"/>
</g>
<g opacity="0.7" filter="url(#filter27_i_103_79)">
<path d="M107.807 34.1666C107.098 29.7665 102.744 25.4457 98.3436 26.1538C93.9435 26.8619 90.2218 32.823 90.93 37.2231C91.6381 41.6232 96.7216 44.1239 101.122 43.4158C105.522 42.7077 108.515 38.5667 107.807 34.1666Z" fill="#A896D3"/>
</g>
</g>
<g opacity="0.8">
<g opacity="0.5" filter="url(#filter28_i_103_79)">
<path d="M59.8725 67.7766C52.996 65.7337 48.3075 69.4972 46.2109 76.5546C44.1142 83.6121 47.9891 90.9893 54.8655 93.0322C61.742 95.075 68.2635 91.1429 70.3601 84.0855C72.4567 77.0281 66.7489 69.8194 59.8725 67.7766Z" fill="#E6D7FF"/>
</g>
<g opacity="0.7" filter="url(#filter29_i_103_79)">
<path d="M60.9006 72.7176C56.5576 71.4274 50.6803 73.5128 49.3901 77.8558C48.0998 82.1989 51.9209 88.2352 56.2639 89.5254C60.607 90.8157 65.138 87.2606 66.4282 82.9175C67.7184 78.5745 65.2437 74.0078 60.9006 72.7176Z" fill="#C0B1E2"/>
</g>
<g opacity="0.7" filter="url(#filter30_i_103_79)">
<path d="M57.7497 75.0872C55.3288 74.3679 52.0526 75.5304 51.3334 77.9514C50.6142 80.3723 52.7441 83.7371 55.1651 84.4563C57.586 85.1756 60.1117 83.1938 60.8309 80.7729C61.5502 78.352 60.1706 75.8064 57.7497 75.0872Z" fill="#A896D3"/>
</g>
</g>
<g opacity="0.5" filter="url(#filter31_i_103_79)">
<path d="M22.6445 144.897C23.8861 152.799 29.9236 155.714 38.0338 154.439C46.1441 153.165 51.7122 145.726 50.4705 137.824C49.2289 129.921 42.1425 125.242 34.0323 126.517C25.922 127.791 21.4028 136.994 22.6445 144.897Z" fill="#E6D7FF"/>
</g>
<g opacity="0.7" filter="url(#filter32_i_103_79)">
<path d="M27.1251 141.492C27.9093 146.482 32.8276 151.399 37.8185 150.615C42.8094 149.83 47.0534 143.089 46.2692 138.098C45.485 133.107 39.7329 130.251 34.742 131.035C29.7511 131.819 26.3409 136.501 27.1251 141.492Z" fill="#C0B1E2"/>
</g>
<g opacity="0.5" filter="url(#filter33_i_103_79)">
<path d="M136.884 37.349C132.399 43.9558 134.811 50.1987 141.592 54.8023C148.372 59.4059 157.505 57.7821 161.991 51.1753C166.476 44.5686 164.503 36.3241 157.723 31.7206C150.942 27.117 141.37 30.7423 136.884 37.349Z" fill="#C0B1E2"/>
</g>
<g opacity="0.7" filter="url(#filter34_i_103_79)">
<path d="M142.473 37.9238C139.64 42.0964 139.871 49.0349 144.044 51.8678C148.216 54.7008 155.909 52.682 158.742 48.5093C161.575 44.3366 159.331 38.331 155.158 35.498C150.985 32.6651 145.306 33.7511 142.473 37.9238Z" fill="#A896D3"/>
</g>
<circle cx="102.461" cy="152.507" r="1.91357" transform="rotate(-4 102.461 152.507)" fill="#A896D3"/>
<circle cx="98.5234" cy="96.1943" r="1.91357" transform="rotate(-4 98.5234 96.1943)" fill="#C0B1E2"/>
<circle cx="78.7991" cy="137.947" r="1.91357" transform="rotate(-4 78.7991 137.947)" fill="#A896D3"/>
<circle cx="93.9271" cy="85.3258" r="1.91357" transform="rotate(-4 93.9271 85.3258)" fill="#C0B1E2"/>
<circle cx="98.1899" cy="182.865" r="1.91357" transform="rotate(-4 98.1899 182.865)" fill="#A896D3"/>
<circle cx="153.121" cy="191.166" r="1.91357" transform="rotate(-4 153.121 191.166)" fill="#A896D3"/>
<circle cx="133.876" cy="144.556" r="1.91357" transform="rotate(-4 133.876 144.556)" fill="#C0B1E2"/>
<circle cx="119.317" cy="72.2284" r="1.91357" transform="rotate(-4 119.317 72.2284)" fill="#C0B1E2"/>
<circle cx="101.918" cy="89.8823" r="1.91357" transform="rotate(-4 101.918 89.8823)" fill="#C0B1E2"/>
<circle cx="61.2128" cy="111.272" r="1.91357" transform="rotate(-4 61.2128 111.272)" fill="#A896D3"/>
<circle cx="176.289" cy="52.3306" r="1.91357" transform="rotate(-4 176.289 52.3306)" fill="#A896D3"/>
<g opacity="0.8">
<g opacity="0.5" filter="url(#filter35_i_103_79)">
<path d="M24.3135 77.4484C19.4455 76.0022 16.1263 78.6665 14.642 83.6626C13.1578 88.6588 15.9009 93.8813 20.7689 95.3276C25.637 96.7738 30.2537 93.9901 31.738 88.9939C33.2223 83.9978 29.1816 78.8946 24.3135 77.4484Z" fill="#E6D7FF"/>
</g>
</g>
<g filter="url(#filter36_f_103_79)">
<path d="M89.4729 11.1872V11.1872C37.0938 91.6831 96.7556 197.866 192.75 194.995L223.528 194.074L-47.5034 211.867L89.4729 11.1872Z" fill="url(#paint1_linear_103_79)" fill-opacity="0.4"/>
</g>
<g opacity="0.2" filter="url(#filter37_f_103_79)">
<path d="M108.171 228.564V228.564C180.344 165.207 151.578 46.8558 58.3754 23.6942L28.4923 16.2681L294.257 72.3372L108.171 228.564Z" fill="white"/>
</g>
</g>
</g>
<defs>
<filter id="filter0_d_103_79" x="0.0333567" y="0.601663" width="232.565" height="232.565" filterUnits="userSpaceOnUse" color-interpolation-filters="sRGB">
<feFlood flood-opacity="0" result="BackgroundImageFix"/>
<feColorMatrix in="SourceAlpha" type="matrix" values="0 0 0 0 0 0 0 0 0 0 0 0 0 0 0 0 0 0 127 0" result="hardAlpha"/>
<feMorphology radius="5.28322" operator="dilate" in="SourceAlpha" result="effect1_dropShadow_103_79"/>
<feOffset dy="1.05664"/>
<feGaussianBlur stdDeviation="13.2081"/>
<feComposite in2="hardAlpha" operator="out"/>
<feColorMatrix type="matrix" values="0 0 0 0 0.651 0 0 0 0 0.561337 0 0 0 0 0.904167 0 0 0 0.3 0"/>
<feBlend mode="normal" in2="BackgroundImageFix" result="effect1_dropShadow_103_79"/>
<feBlend mode="normal" in="SourceGraphic" in2="effect1_dropShadow_103_79" result="shape"/>
</filter>
<filter id="filter1_i_103_79" x="101.074" y="127.204" width="16.4113" height="18.5214" filterUnits="userSpaceOnUse" color-interpolation-filters="sRGB">
<feFlood flood-opacity="0" result="BackgroundImageFix"/>
<feBlend mode="normal" in="SourceGraphic" in2="BackgroundImageFix" result="shape"/>
<feColorMatrix in="SourceAlpha" type="matrix" values="0 0 0 0 0 0 0 0 0 0 0 0 0 0 0 0 0 0 127 0" result="hardAlpha"/>
<feOffset dy="0.967909"/>
<feGaussianBlur stdDeviation="0.967909"/>
<feComposite in2="hardAlpha" operator="arithmetic" k2="-1" k3="1"/>
<feColorMatrix type="matrix" values="0 0 0 0 0.356863 0 0 0 0 0.262745 0 0 0 0 0.623529 0 0 0 0.5 0"/>
<feBlend mode="normal" in2="shape" result="effect1_innerShadow_103_79"/>
</filter>
<filter id="filter2_i_103_79" x="103.527" y="129.77" width="11.4117" height="12.4217" filterUnits="userSpaceOnUse" color-interpolation-filters="sRGB">
<feFlood flood-opacity="0" result="BackgroundImageFix"/>
<feBlend mode="normal" in="SourceGraphic" in2="BackgroundImageFix" result="shape"/>
<feColorMatrix in="SourceAlpha" type="matrix" values="0 0 0 0 0 0 0 0 0 0 0 0 0 0 0 0 0 0 127 0" result="hardAlpha"/>
<feOffset dy="0.967909"/>
<feGaussianBlur stdDeviation="0.967909"/>
<feComposite in2="hardAlpha" operator="arithmetic" k2="-1" k3="1"/>
<feColorMatrix type="matrix" values="0 0 0 0 0.356863 0 0 0 0 0.262745 0 0 0 0 0.623529 0 0 0 0.5 0"/>
<feBlend mode="normal" in2="shape" result="effect1_innerShadow_103_79"/>
</filter>
<filter id="filter3_i_103_79" x="115.532" y="169.021" width="16.8834" height="19.8921" filterUnits="userSpaceOnUse" color-interpolation-filters="sRGB">
<feFlood flood-opacity="0" result="BackgroundImageFix"/>
<feBlend mode="normal" in="SourceGraphic" in2="BackgroundImageFix" result="shape"/>
<feColorMatrix in="SourceAlpha" type="matrix" values="0 0 0 0 0 0 0 0 0 0 0 0 0 0 0 0 0 0 127 0" result="hardAlpha"/>
<feOffset dy="0.967909"/>
<feGaussianBlur stdDeviation="0.967909"/>
<feComposite in2="hardAlpha" operator="arithmetic" k2="-1" k3="1"/>
<feColorMatrix type="matrix" values="0 0 0 0 0.356863 0 0 0 0 0.262745 0 0 0 0 0.623529 0 0 0 0.5 0"/>
<feBlend mode="normal" in2="shape" result="effect1_innerShadow_103_79"/>
</filter>
<filter id="filter4_i_103_79" x="38.6941" y="192.879" width="20.2666" height="24.1571" filterUnits="userSpaceOnUse" color-interpolation-filters="sRGB">
<feFlood flood-opacity="0" result="BackgroundImageFix"/>
<feBlend mode="normal" in="SourceGraphic" in2="BackgroundImageFix" result="shape"/>
<feColorMatrix in="SourceAlpha" type="matrix" values="0 0 0 0 0 0 0 0 0 0 0 0 0 0 0 0 0 0 127 0" result="hardAlpha"/>
<feOffset dy="0.967909"/>
<feGaussianBlur stdDeviation="0.967909"/>
<feComposite in2="hardAlpha" operator="arithmetic" k2="-1" k3="1"/>
<feColorMatrix type="matrix" values="0 0 0 0 0.356863 0 0 0 0 0.262745 0 0 0 0 0.623529 0 0 0 0.5 0"/>
<feBlend mode="normal" in2="shape" result="effect1_innerShadow_103_79"/>
</filter>
<filter id="filter5_i_103_79" x="42.5941" y="195.172" width="14.6693" height="17.7525" filterUnits="userSpaceOnUse" color-interpolation-filters="sRGB">
<feFlood flood-opacity="0" result="BackgroundImageFix"/>
<feBlend mode="normal" in="SourceGraphic" in2="BackgroundImageFix" result="shape"/>
<feColorMatrix in="SourceAlpha" type="matrix" values="0 0 0 0 0 0 0 0 0 0 0 0 0 0 0 0 0 0 127 0" result="hardAlpha"/>
<feOffset dy="0.967909"/>
<feGaussianBlur stdDeviation="0.967909"/>
<feComposite in2="hardAlpha" operator="arithmetic" k2="-1" k3="1"/>
<feColorMatrix type="matrix" values="0 0 0 0 0.356863 0 0 0 0 0.262745 0 0 0 0 0.623529 0 0 0 0.5 0"/>
<feBlend mode="normal" in2="shape" result="effect1_innerShadow_103_79"/>
</filter>
<filter id="filter6_i_103_79" x="136.718" y="69.9072" width="27.6919" height="30.9391" filterUnits="userSpaceOnUse" color-interpolation-filters="sRGB">
<feFlood flood-opacity="0" result="BackgroundImageFix"/>
<feBlend mode="normal" in="SourceGraphic" in2="BackgroundImageFix" result="shape"/>
<feColorMatrix in="SourceAlpha" type="matrix" values="0 0 0 0 0 0 0 0 0 0 0 0 0 0 0 0 0 0 127 0" result="hardAlpha"/>
<feOffset dy="0.967909"/>
<feGaussianBlur stdDeviation="0.967909"/>
<feComposite in2="hardAlpha" operator="arithmetic" k2="-1" k3="1"/>
<feColorMatrix type="matrix" values="0 0 0 0 0.356863 0 0 0 0 0.262745 0 0 0 0 0.623529 0 0 0 0.5 0"/>
<feBlend mode="normal" in2="shape" result="effect1_innerShadow_103_79"/>
</filter>
<filter id="filter7_i_103_79" x="141.292" y="74.628" width="18.8514" height="19.8225" filterUnits="userSpaceOnUse" color-interpolation-filters="sRGB">
<feFlood flood-opacity="0" result="BackgroundImageFix"/>
<feBlend mode="normal" in="SourceGraphic" in2="BackgroundImageFix" result="shape"/>
<feColorMatrix in="SourceAlpha" type="matrix" values="0 0 0 0 0 0 0 0 0 0 0 0 0 0 0 0 0 0 127 0" result="hardAlpha"/>
<feOffset dy="0.967909"/>
<feGaussianBlur stdDeviation="0.967909"/>
<feComposite in2="hardAlpha" operator="arithmetic" k2="-1" k3="1"/>
<feColorMatrix type="matrix" values="0 0 0 0 0.356863 0 0 0 0 0.262745 0 0 0 0 0.623529 0 0 0 0.5 0"/>
<feBlend mode="normal" in2="shape" result="effect1_innerShadow_103_79"/>
</filter>
<filter id="filter8_i_103_79" x="160.684" y="166.161" width="25.4923" height="30.7073" filterUnits="userSpaceOnUse" color-interpolation-filters="sRGB">
<feFlood flood-opacity="0" result="BackgroundImageFix"/>
<feBlend mode="normal" in="SourceGraphic" in2="BackgroundImageFix" result="shape"/>
<feColorMatrix in="SourceAlpha" type="matrix" values="0 0 0 0 0 0 0 0 0 0 0 0 0 0 0 0 0 0 127 0" result="hardAlpha"/>
<feOffset dy="0.967909"/>
<feGaussianBlur stdDeviation="0.967909"/>
<feComposite in2="hardAlpha" operator="arithmetic" k2="-1" k3="1"/>
<feColorMatrix type="matrix" values="0 0 0 0 0.356863 0 0 0 0 0.262745 0 0 0 0 0.623529 0 0 0 0.5 0"/>
<feBlend mode="normal" in2="shape" result="effect1_innerShadow_103_79"/>
</filter>
<filter id="filter9_i_103_79" x="164.6" y="170.445" width="16.8997" height="20.9435" filterUnits="userSpaceOnUse" color-interpolation-filters="sRGB">
<feFlood flood-opacity="0" result="BackgroundImageFix"/>
<feBlend mode="normal" in="SourceGraphic" in2="BackgroundImageFix" result="shape"/>
<feColorMatrix in="SourceAlpha" type="matrix" values="0 0 0 0 0 0 0 0 0 0 0 0 0 0 0 0 0 0 127 0" result="hardAlpha"/>
<feOffset dy="0.967909"/>
<feGaussianBlur stdDeviation="0.967909"/>
<feComposite in2="hardAlpha" operator="arithmetic" k2="-1" k3="1"/>
<feColorMatrix type="matrix" values="0 0 0 0 0.356863 0 0 0 0 0.262745 0 0 0 0 0.623529 0 0 0 0.5 0"/>
<feBlend mode="normal" in2="shape" result="effect1_innerShadow_103_79"/>
</filter>
<filter id="filter10_i_103_79" x="64.4938" y="157.336" width="9.07346" height="10.0429" filterUnits="userSpaceOnUse" color-interpolation-filters="sRGB">
<feFlood flood-opacity="0" result="BackgroundImageFix"/>
<feBlend mode="normal" in="SourceGraphic" in2="BackgroundImageFix" result="shape"/>
<feColorMatrix in="SourceAlpha" type="matrix" values="0 0 0 0 0 0 0 0 0 0 0 0 0 0 0 0 0 0 127 0" result="hardAlpha"/>
<feOffset dy="0.967909"/>
<feGaussianBlur stdDeviation="0.967909"/>
<feComposite in2="hardAlpha" operator="arithmetic" k2="-1" k3="1"/>
<feColorMatrix type="matrix" values="0 0 0 0 0.356863 0 0 0 0 0.262745 0 0 0 0 0.623529 0 0 0 0.5 0"/>
<feBlend mode="normal" in2="shape" result="effect1_innerShadow_103_79"/>
</filter>
<filter id="filter11_i_103_79" x="180.597" y="108.102" width="14.7471" height="17.4212" filterUnits="userSpaceOnUse" color-interpolation-filters="sRGB">
<feFlood flood-opacity="0" result="BackgroundImageFix"/>
<feBlend mode="normal" in="SourceGraphic" in2="BackgroundImageFix" result="shape"/>
<feColorMatrix in="SourceAlpha" type="matrix" values="0 0 0 0 0 0 0 0 0 0 0 0 0 0 0 0 0 0 127 0" result="hardAlpha"/>
<feOffset dy="0.967909"/>
<feGaussianBlur stdDeviation="0.967909"/>
<feComposite in2="hardAlpha" operator="arithmetic" k2="-1" k3="1"/>
<feColorMatrix type="matrix" values="0 0 0 0 0.356863 0 0 0 0 0.262745 0 0 0 0 0.623529 0 0 0 0.5 0"/>
<feBlend mode="normal" in2="shape" result="effect1_innerShadow_103_79"/>
</filter>
<filter id="filter12_i_103_79" x="186.844" y="83.833" width="14.7471" height="17.4212" filterUnits="userSpaceOnUse" color-interpolation-filters="sRGB">
<feFlood flood-opacity="0" result="BackgroundImageFix"/>
<feBlend mode="normal" in="SourceGraphic" in2="BackgroundImageFix" result="shape"/>
<feColorMatrix in="SourceAlpha" type="matrix" values="0 0 0 0 0 0 0 0 0 0 0 0 0 0 0 0 0 0 127 0" result="hardAlpha"/>
<feOffset dy="0.967909"/>
<feGaussianBlur stdDeviation="0.967909"/>
<feComposite in2="hardAlpha" operator="arithmetic" k2="-1" k3="1"/>
<feColorMatrix type="matrix" values="0 0 0 0 0.356863 0 0 0 0 0.262745 0 0 0 0 0.623529 0 0 0 0.5 0"/>
<feBlend mode="normal" in2="shape" result="effect1_innerShadow_103_79"/>
</filter>
<filter id="filter13_i_103_79" x="65.6743" y="96.9699" width="27.764" height="26.8364" filterUnits="userSpaceOnUse" color-interpolation-filters="sRGB">
<feFlood flood-opacity="0" result="BackgroundImageFix"/>
<feBlend mode="normal" in="SourceGraphic" in2="BackgroundImageFix" result="shape"/>
<feColorMatrix in="SourceAlpha" type="matrix" values="0 0 0 0 0 0 0 0 0 0 0 0 0 0 0 0 0 0 127 0" result="hardAlpha"/>
<feOffset dy="0.967909"/>
<feGaussianBlur stdDeviation="0.967909"/>
<feComposite in2="hardAlpha" operator="arithmetic" k2="-1" k3="1"/>
<feColorMatrix type="matrix" values="0 0 0 0 0.356863 0 0 0 0 0.262745 0 0 0 0 0.623529 0 0 0 0.5 0"/>
<feBlend mode="normal" in2="shape" result="effect1_innerShadow_103_79"/>
</filter>
<filter id="filter14_i_103_79" x="71.2518" y="100.944" width="18.0919" height="18.9164" filterUnits="userSpaceOnUse" color-interpolation-filters="sRGB">
<feFlood flood-opacity="0" result="BackgroundImageFix"/>
<feBlend mode="normal" in="SourceGraphic" in2="BackgroundImageFix" result="shape"/>
<feColorMatrix in="SourceAlpha" type="matrix" values="0 0 0 0 0 0 0 0 0 0 0 0 0 0 0 0 0 0 127 0" result="hardAlpha"/>
<feOffset dy="0.967909"/>
<feGaussianBlur stdDeviation="0.967909"/>
<feComposite in2="hardAlpha" operator="arithmetic" k2="-1" k3="1"/>
<feColorMatrix type="matrix" values="0 0 0 0 0.356863 0 0 0 0 0.262745 0 0 0 0 0.623529 0 0 0 0.5 0"/>
<feBlend mode="normal" in2="shape" result="effect1_innerShadow_103_79"/>
</filter>
<filter id="filter15_i_103_79" x="42.9747" y="113.425" width="5.56866" height="5.961" filterUnits="userSpaceOnUse" color-interpolation-filters="sRGB">
<feFlood flood-opacity="0" result="BackgroundImageFix"/>
<feBlend mode="normal" in="SourceGraphic" in2="BackgroundImageFix" result="shape"/>
<feColorMatrix in="SourceAlpha" type="matrix" values="0 0 0 0 0 0 0 0 0 0 0 0 0 0 0 0 0 0 127 0" result="hardAlpha"/>
<feOffset dy="0.436459"/>
<feGaussianBlur stdDeviation="0.436459"/>
<feComposite in2="hardAlpha" operator="arithmetic" k2="-1" k3="1"/>
<feColorMatrix type="matrix" values="0 0 0 0 0.403922 0 0 0 0 0.309804 0 0 0 0 0.0156863 0 0 0 0.25 0"/>
<feBlend mode="normal" in2="shape" result="effect1_innerShadow_103_79"/>
</filter>
<filter id="filter16_i_103_79" x="75.4997" y="76.0973" width="5.32114" height="6.2469" filterUnits="userSpaceOnUse" color-interpolation-filters="sRGB">
<feFlood flood-opacity="0" result="BackgroundImageFix"/>
<feBlend mode="normal" in="SourceGraphic" in2="BackgroundImageFix" result="shape"/>
<feColorMatrix in="SourceAlpha" type="matrix" values="0 0 0 0 0 0 0 0 0 0 0 0 0 0 0 0 0 0 127 0" result="hardAlpha"/>
<feOffset dy="0.967909"/>
<feGaussianBlur stdDeviation="0.967909"/>
<feComposite in2="hardAlpha" operator="arithmetic" k2="-1" k3="1"/>
<feColorMatrix type="matrix" values="0 0 0 0 0.356863 0 0 0 0 0.262745 0 0 0 0 0.623529 0 0 0 0.5 0"/>
<feBlend mode="normal" in2="shape" result="effect1_innerShadow_103_79"/>
</filter>
<filter id="filter17_i_103_79" x="41.8506" y="49.3216" width="5.32114" height="6.2469" filterUnits="userSpaceOnUse" color-interpolation-filters="sRGB">
<feFlood flood-opacity="0" result="BackgroundImageFix"/>
<feBlend mode="normal" in="SourceGraphic" in2="BackgroundImageFix" result="shape"/>
<feColorMatrix in="SourceAlpha" type="matrix" values="0 0 0 0 0 0 0 0 0 0 0 0 0 0 0 0 0 0 127 0" result="hardAlpha"/>
<feOffset dy="0.967909"/>
<feGaussianBlur stdDeviation="0.967909"/>
<feComposite in2="hardAlpha" operator="arithmetic" k2="-1" k3="1"/>
<feColorMatrix type="matrix" values="0 0 0 0 0.356863 0 0 0 0 0.262745 0 0 0 0 0.623529 0 0 0 0.5 0"/>
<feBlend mode="normal" in2="shape" result="effect1_innerShadow_103_79"/>
</filter>
<filter id="filter18_i_103_79" x="185.1" y="189.497" width="5.32111" height="6.2469" filterUnits="userSpaceOnUse" color-interpolation-filters="sRGB">
<feFlood flood-opacity="0" result="BackgroundImageFix"/>
<feBlend mode="normal" in="SourceGraphic" in2="BackgroundImageFix" result="shape"/>
<feColorMatrix in="SourceAlpha" type="matrix" values="0 0 0 0 0 0 0 0 0 0 0 0 0 0 0 0 0 0 127 0" result="hardAlpha"/>
<feOffset dy="0.967909"/>
<feGaussianBlur stdDeviation="0.967909"/>
<feComposite in2="hardAlpha" operator="arithmetic" k2="-1" k3="1"/>
<feColorMatrix type="matrix" values="0 0 0 0 0.356863 0 0 0 0 0.262745 0 0 0 0 0.623529 0 0 0 0.5 0"/>
<feBlend mode="normal" in2="shape" result="effect1_innerShadow_103_79"/>
</filter>
<filter id="filter19_i_103_79" x="188.159" y="157.507" width="5.32111" height="6.2469" filterUnits="userSpaceOnUse" color-interpolation-filters="sRGB">
<feFlood flood-opacity="0" result="BackgroundImageFix"/>
<feBlend mode="normal" in="SourceGraphic" in2="BackgroundImageFix" result="shape"/>
<feColorMatrix in="SourceAlpha" type="matrix" values="0 0 0 0 0 0 0 0 0 0 0 0 0 0 0 0 0 0 127 0" result="hardAlpha"/>
<feOffset dy="0.967909"/>
<feGaussianBlur stdDeviation="0.967909"/>
<feComposite in2="hardAlpha" operator="arithmetic" k2="-1" k3="1"/>
<feColorMatrix type="matrix" values="0 0 0 0 0.356863 0 0 0 0 0.262745 0 0 0 0 0.623529 0 0 0 0.5 0"/>
<feBlend mode="normal" in2="shape" result="effect1_innerShadow_103_79"/>
</filter>
<filter id="filter20_i_103_79" x="80.0464" y="196.941" width="5.32114" height="6.2469" filterUnits="userSpaceOnUse" color-interpolation-filters="sRGB">
<feFlood flood-opacity="0" result="BackgroundImageFix"/>
<feBlend mode="normal" in="SourceGraphic" in2="BackgroundImageFix" result="shape"/>
<feColorMatrix in="SourceAlpha" type="matrix" values="0 0 0 0 0 0 0 0 0 0 0 0 0 0 0 0 0 0 127 0" result="hardAlpha"/>
<feOffset dy="0.967909"/>
<feGaussianBlur stdDeviation="0.967909"/>
<feComposite in2="hardAlpha" operator="arithmetic" k2="-1" k3="1"/>
<feColorMatrix type="matrix" values="0 0 0 0 0.356863 0 0 0 0 0.262745 0 0 0 0 0.623529 0 0 0 0.5 0"/>
<feBlend mode="normal" in2="shape" result="effect1_innerShadow_103_79"/>
</filter>
<filter id="filter21_i_103_79" x="136.7" y="118.626" width="43.4342" height="41.9051" filterUnits="userSpaceOnUse" color-interpolation-filters="sRGB">
<feFlood flood-opacity="0" result="BackgroundImageFix"/>
<feBlend mode="normal" in="SourceGraphic" in2="BackgroundImageFix" result="shape"/>
<feColorMatrix in="SourceAlpha" type="matrix" values="0 0 0 0 0 0 0 0 0 0 0 0 0 0 0 0 0 0 127 0" result="hardAlpha"/>
<feOffset dy="0.967909"/>
<feGaussianBlur stdDeviation="0.967909"/>
<feComposite in2="hardAlpha" operator="arithmetic" k2="-1" k3="1"/>
<feColorMatrix type="matrix" values="0 0 0 0 0.356863 0 0 0 0 0.262745 0 0 0 0 0.623529 0 0 0 0.5 0"/>
<feBlend mode="normal" in2="shape" result="effect1_innerShadow_103_79"/>
</filter>
<filter id="filter22_i_103_79" x="144.282" y="124.678" width="28.9941" height="29.193" filterUnits="userSpaceOnUse" color-interpolation-filters="sRGB">
<feFlood flood-opacity="0" result="BackgroundImageFix"/>
<feBlend mode="normal" in="SourceGraphic" in2="BackgroundImageFix" result="shape"/>
<feColorMatrix in="SourceAlpha" type="matrix" values="0 0 0 0 0 0 0 0 0 0 0 0 0 0 0 0 0 0 127 0" result="hardAlpha"/>
<feOffset dy="0.967909"/>
<feGaussianBlur stdDeviation="0.967909"/>
<feComposite in2="hardAlpha" operator="arithmetic" k2="-1" k3="1"/>
<feColorMatrix type="matrix" values="0 0 0 0 0.356863 0 0 0 0 0.262745 0 0 0 0 0.623529 0 0 0 0.5 0"/>
<feBlend mode="normal" in2="shape" result="effect1_innerShadow_103_79"/>
</filter>
<filter id="filter23_i_103_79" x="147.225" y="131.947" width="16.1622" height="16.7014" filterUnits="userSpaceOnUse" color-interpolation-filters="sRGB">
<feFlood flood-opacity="0" result="BackgroundImageFix"/>
<feBlend mode="normal" in="SourceGraphic" in2="BackgroundImageFix" result="shape"/>
<feColorMatrix in="SourceAlpha" type="matrix" values="0 0 0 0 0 0 0 0 0 0 0 0 0 0 0 0 0 0 127 0" result="hardAlpha"/>
<feOffset dy="0.967909"/>
<feGaussianBlur stdDeviation="0.967909"/>
<feComposite in2="hardAlpha" operator="arithmetic" k2="-1" k3="1"/>
<feColorMatrix type="matrix" values="0 0 0 0 0.356863 0 0 0 0 0.262745 0 0 0 0 0.623529 0 0 0 0.5 0"/>
<feBlend mode="normal" in2="shape" result="effect1_innerShadow_103_79"/>
</filter>
<filter id="filter24_i_103_79" x="132.651" y="104.695" width="10.5529" height="11.2409" filterUnits="userSpaceOnUse" color-interpolation-filters="sRGB">
<feFlood flood-opacity="0" result="BackgroundImageFix"/>
<feBlend mode="normal" in="SourceGraphic" in2="BackgroundImageFix" result="shape"/>
<feColorMatrix in="SourceAlpha" type="matrix" values="0 0 0 0 0 0 0 0 0 0 0 0 0 0 0 0 0 0 127 0" result="hardAlpha"/>
<feOffset dy="0.967909"/>
<feGaussianBlur stdDeviation="0.967909"/>
<feComposite in2="hardAlpha" operator="arithmetic" k2="-1" k3="1"/>
<feColorMatrix type="matrix" values="0 0 0 0 0.356863 0 0 0 0 0.262745 0 0 0 0 0.623529 0 0 0 0.5 0"/>
<feBlend mode="normal" in2="shape" result="effect1_innerShadow_103_79"/>
</filter>
<filter id="filter25_i_103_79" x="76.7755" y="16.4625" width="44.6181" height="45.9536" filterUnits="userSpaceOnUse" color-interpolation-filters="sRGB">
<feFlood flood-opacity="0" result="BackgroundImageFix"/>
<feBlend mode="normal" in="SourceGraphic" in2="BackgroundImageFix" result="shape"/>
<feColorMatrix in="SourceAlpha" type="matrix" values="0 0 0 0 0 0 0 0 0 0 0 0 0 0 0 0 0 0 127 0" result="hardAlpha"/>
<feOffset dy="0.967909"/>
<feGaussianBlur stdDeviation="0.967909"/>
<feComposite in2="hardAlpha" operator="arithmetic" k2="-1" k3="1"/>
<feColorMatrix type="matrix" values="0 0 0 0 0.356863 0 0 0 0 0.262745 0 0 0 0 0.623529 0 0 0 0.5 0"/>
<feBlend mode="normal" in2="shape" result="effect1_innerShadow_103_79"/>
</filter>
<filter id="filter26_i_103_79" x="83.5532" y="22.853" width="30.6177" height="32.2859" filterUnits="userSpaceOnUse" color-interpolation-filters="sRGB">
<feFlood flood-opacity="0" result="BackgroundImageFix"/>
<feBlend mode="normal" in="SourceGraphic" in2="BackgroundImageFix" result="shape"/>
<feColorMatrix in="SourceAlpha" type="matrix" values="0 0 0 0 0 0 0 0 0 0 0 0 0 0 0 0 0 0 127 0" result="hardAlpha"/>
<feOffset dy="0.967909"/>
<feGaussianBlur stdDeviation="0.967909"/>
<feComposite in2="hardAlpha" operator="arithmetic" k2="-1" k3="1"/>
<feColorMatrix type="matrix" values="0 0 0 0 0.356863 0 0 0 0 0.262745 0 0 0 0 0.623529 0 0 0 0.5 0"/>
<feBlend mode="normal" in2="shape" result="effect1_innerShadow_103_79"/>
</filter>
<filter id="filter27_i_103_79" x="90.843" y="26.0772" width="17.0673" height="18.4255" filterUnits="userSpaceOnUse" color-interpolation-filters="sRGB">
<feFlood flood-opacity="0" result="BackgroundImageFix"/>
<feBlend mode="normal" in="SourceGraphic" in2="BackgroundImageFix" result="shape"/>
<feColorMatrix in="SourceAlpha" type="matrix" values="0 0 0 0 0 0 0 0 0 0 0 0 0 0 0 0 0 0 127 0" result="hardAlpha"/>
<feOffset dy="0.967909"/>
<feGaussianBlur stdDeviation="0.967909"/>
<feComposite in2="hardAlpha" operator="arithmetic" k2="-1" k3="1"/>
<feColorMatrix type="matrix" values="0 0 0 0 0.356863 0 0 0 0 0.262745 0 0 0 0 0.623529 0 0 0 0.5 0"/>
<feBlend mode="normal" in2="shape" result="effect1_innerShadow_103_79"/>
</filter>
<filter id="filter28_i_103_79" x="45.6415" y="67.223" width="25.1586" height="27.3161" filterUnits="userSpaceOnUse" color-interpolation-filters="sRGB">
<feFlood flood-opacity="0" result="BackgroundImageFix"/>
<feBlend mode="normal" in="SourceGraphic" in2="BackgroundImageFix" result="shape"/>
<feColorMatrix in="SourceAlpha" type="matrix" values="0 0 0 0 0 0 0 0 0 0 0 0 0 0 0 0 0 0 127 0" result="hardAlpha"/>
<feOffset dy="0.967909"/>
<feGaussianBlur stdDeviation="0.967909"/>
<feComposite in2="hardAlpha" operator="arithmetic" k2="-1" k3="1"/>
<feColorMatrix type="matrix" values="0 0 0 0 0.356863 0 0 0 0 0.262745 0 0 0 0 0.623529 0 0 0 0.5 0"/>
<feBlend mode="normal" in2="shape" result="effect1_innerShadow_103_79"/>
</filter>
<filter id="filter29_i_103_79" x="49.1357" y="72.3395" width="17.6343" height="18.4219" filterUnits="userSpaceOnUse" color-interpolation-filters="sRGB">
<feFlood flood-opacity="0" result="BackgroundImageFix"/>
<feBlend mode="normal" in="SourceGraphic" in2="BackgroundImageFix" result="shape"/>
<feColorMatrix in="SourceAlpha" type="matrix" values="0 0 0 0 0 0 0 0 0 0 0 0 0 0 0 0 0 0 127 0" result="hardAlpha"/>
<feOffset dy="0.967909"/>
<feGaussianBlur stdDeviation="0.967909"/>
<feComposite in2="hardAlpha" operator="arithmetic" k2="-1" k3="1"/>
<feColorMatrix type="matrix" values="0 0 0 0 0.356863 0 0 0 0 0.262745 0 0 0 0 0.623529 0 0 0 0.5 0"/>
<feBlend mode="normal" in2="shape" result="effect1_innerShadow_103_79"/>
</filter>
<filter id="filter30_i_103_79" x="51.1916" y="74.8764" width="9.82993" height="10.6973" filterUnits="userSpaceOnUse" color-interpolation-filters="sRGB">
<feFlood flood-opacity="0" result="BackgroundImageFix"/>
<feBlend mode="normal" in="SourceGraphic" in2="BackgroundImageFix" result="shape"/>
<feColorMatrix in="SourceAlpha" type="matrix" values="0 0 0 0 0 0 0 0 0 0 0 0 0 0 0 0 0 0 127 0" result="hardAlpha"/>
<feOffset dy="0.967909"/>
<feGaussianBlur stdDeviation="0.967909"/>
<feComposite in2="hardAlpha" operator="arithmetic" k2="-1" k3="1"/>
<feColorMatrix type="matrix" values="0 0 0 0 0.356863 0 0 0 0 0.262745 0 0 0 0 0.623529 0 0 0 0.5 0"/>
<feBlend mode="normal" in2="shape" result="effect1_innerShadow_103_79"/>
</filter>
<filter id="filter31_i_103_79" x="22.441" y="126.309" width="28.2027" height="29.3868" filterUnits="userSpaceOnUse" color-interpolation-filters="sRGB">
<feFlood flood-opacity="0" result="BackgroundImageFix"/>
<feBlend mode="normal" in="SourceGraphic" in2="BackgroundImageFix" result="shape"/>
<feColorMatrix in="SourceAlpha" type="matrix" values="0 0 0 0 0 0 0 0 0 0 0 0 0 0 0 0 0 0 127 0" result="hardAlpha"/>
<feOffset dy="0.967909"/>
<feGaussianBlur stdDeviation="0.967909"/>
<feComposite in2="hardAlpha" operator="arithmetic" k2="-1" k3="1"/>
<feColorMatrix type="matrix" values="0 0 0 0 0.356863 0 0 0 0 0.262745 0 0 0 0 0.623529 0 0 0 0.5 0"/>
<feBlend mode="normal" in2="shape" result="effect1_innerShadow_103_79"/>
</filter>
<filter id="filter32_i_103_79" x="27.0129" y="130.906" width="19.3502" height="20.7593" filterUnits="userSpaceOnUse" color-interpolation-filters="sRGB">
<feFlood flood-opacity="0" result="BackgroundImageFix"/>
<feBlend mode="normal" in="SourceGraphic" in2="BackgroundImageFix" result="shape"/>
<feColorMatrix in="SourceAlpha" type="matrix" values="0 0 0 0 0 0 0 0 0 0 0 0 0 0 0 0 0 0 127 0" result="hardAlpha"/>
<feOffset dy="0.967909"/>
<feGaussianBlur stdDeviation="0.967909"/>
<feComposite in2="hardAlpha" operator="arithmetic" k2="-1" k3="1"/>
<feColorMatrix type="matrix" values="0 0 0 0 0.356863 0 0 0 0 0.262745 0 0 0 0 0.623529 0 0 0 0.5 0"/>
<feBlend mode="normal" in2="shape" result="effect1_innerShadow_103_79"/>
</filter>
<filter id="filter33_i_103_79" x="134.601" y="29.6553" width="29.8005" height="28.7339" filterUnits="userSpaceOnUse" color-interpolation-filters="sRGB">
<feFlood flood-opacity="0" result="BackgroundImageFix"/>
<feBlend mode="normal" in="SourceGraphic" in2="BackgroundImageFix" result="shape"/>
<feColorMatrix in="SourceAlpha" type="matrix" values="0 0 0 0 0 0 0 0 0 0 0 0 0 0 0 0 0 0 127 0" result="hardAlpha"/>
<feOffset dy="0.967909"/>
<feGaussianBlur stdDeviation="0.967909"/>
<feComposite in2="hardAlpha" operator="arithmetic" k2="-1" k3="1"/>
<feColorMatrix type="matrix" values="0 0 0 0 0.356863 0 0 0 0 0.262745 0 0 0 0 0.623529 0 0 0 0.5 0"/>
<feBlend mode="normal" in2="shape" result="effect1_innerShadow_103_79"/>
</filter>
<filter id="filter34_i_103_79" x="140.588" y="33.9203" width="19.4189" height="20.233" filterUnits="userSpaceOnUse" color-interpolation-filters="sRGB">
<feFlood flood-opacity="0" result="BackgroundImageFix"/>
<feBlend mode="normal" in="SourceGraphic" in2="BackgroundImageFix" result="shape"/>
<feColorMatrix in="SourceAlpha" type="matrix" values="0 0 0 0 0 0 0 0 0 0 0 0 0 0 0 0 0 0 127 0" result="hardAlpha"/>
<feOffset dy="0.967909"/>
<feGaussianBlur stdDeviation="0.967909"/>
<feComposite in2="hardAlpha" operator="arithmetic" k2="-1" k3="1"/>
<feColorMatrix type="matrix" values="0 0 0 0 0.356863 0 0 0 0 0.262745 0 0 0 0 0.623529 0 0 0 0.5 0"/>
<feBlend mode="normal" in2="shape" result="effect1_innerShadow_103_79"/>
</filter>
<filter id="filter35_i_103_79" x="14.239" y="77.0565" width="17.8105" height="19.6206" filterUnits="userSpaceOnUse" color-interpolation-filters="sRGB">
<feFlood flood-opacity="0" result="BackgroundImageFix"/>
<feBlend mode="normal" in="SourceGraphic" in2="BackgroundImageFix" result="shape"/>
<feColorMatrix in="SourceAlpha" type="matrix" values="0 0 0 0 0 0 0 0 0 0 0 0 0 0 0 0 0 0 127 0" result="hardAlpha"/>
<feOffset dy="0.967909"/>
<feGaussianBlur stdDeviation="0.967909"/>
<feComposite in2="hardAlpha" operator="arithmetic" k2="-1" k3="1"/>
<feColorMatrix type="matrix" values="0 0 0 0 0.356863 0 0 0 0 0.262745 0 0 0 0 0.623529 0 0 0 0.5 0"/>
<feBlend mode="normal" in2="shape" result="effect1_innerShadow_103_79"/>
</filter>
<filter id="filter36_f_103_79" x="-58.0699" y="0.620705" width="292.165" height="221.813" filterUnits="userSpaceOnUse" color-interpolation-filters="sRGB">
<feFlood flood-opacity="0" result="BackgroundImageFix"/>
<feBlend mode="normal" in="SourceGraphic" in2="BackgroundImageFix" result="shape"/>
<feGaussianBlur stdDeviation="5.28322" result="effect1_foregroundBlur_103_79"/>
</filter>
<filter id="filter37_f_103_79" x="15.2843" y="3.06002" width="292.181" height="238.712" filterUnits="userSpaceOnUse" color-interpolation-filters="sRGB">
<feFlood flood-opacity="0" result="BackgroundImageFix"/>
<feBlend mode="normal" in="SourceGraphic" in2="BackgroundImageFix" result="shape"/>
<feGaussianBlur stdDeviation="6.60403" result="effect1_foregroundBlur_103_79"/>
</filter>
<linearGradient id="paint0_linear_103_79" x1="167.908" y1="68.0562" x2="-12.1181" y2="238.44" gradientUnits="userSpaceOnUse">
<stop stop-color="#E2D8FE"/>
<stop offset="1" stop-color="#836EBE"/>
</linearGradient>
<linearGradient id="paint1_linear_103_79" x1="49.6558" y1="145.584" x2="122.48" y2="120.033" gradientUnits="userSpaceOnUse">
<stop stop-color="#705EA9"/>
<stop offset="1" stop-color="#C4B7EA"/>
</linearGradient>
<clipPath id="clip0_103_79">
<rect x="31.7327" y="42.3005" width="158.497" height="158.497" rx="79.2484" transform="rotate(-4 31.7327 42.3005)" fill="white"/>
</clipPath>
</defs>
</svg>
