<svg width="210" height="209" viewBox="0 0 210 209" fill="none" xmlns="http://www.w3.org/2000/svg">
<g filter="url(#filter0_d_103_22)">
<g clip-path="url(#clip0_103_22)">
<rect x="22.796" y="22.0017" width="164.416" height="164.416" rx="82.208" fill="url(#paint0_linear_103_22)"/>
<g filter="url(#filter1_d_103_22)">
<path fill-rule="evenodd" clip-rule="evenodd" d="M-0.60386 49.3891L6.5121 43.0038C9.64806 40.1899 7.81965 34.9891 3.61268 34.7567C1.93413 34.6639 0.332381 35.4687 -0.595148 36.8708L-1.60356 38.3951C-2.14366 39.2116 -2.33732 40.2091 -2.14192 41.1683L-2.01808 41.7763C-1.76446 43.0213 -2.36194 44.2845 -3.48528 44.8783L-3.67758 44.9799C-5.32413 45.8503 -5.62087 48.0845 -4.25858 49.3544C-3.23304 50.3104 -1.64736 50.3255 -0.60386 49.3891ZM-4.71013 40.6601L-5.40631 39.0585C-5.911 37.8975 -7.35826 37.4981 -8.38696 38.2361C-8.91044 38.6116 -9.21938 39.2176 -9.21578 39.8618L-9.20601 41.6081C-9.19904 42.8546 -8.21826 43.8778 -6.97324 43.9375C-5.2377 44.0207 -4.01746 42.2536 -4.71013 40.6601ZM-15.1942 44.8715L-14.1712 43.4562C-13.4295 42.4302 -13.8235 40.9815 -14.9828 40.4726C-15.5726 40.2136 -16.2515 40.2567 -16.8039 40.5882L-18.3014 41.4866C-19.3702 42.1279 -19.7506 43.4933 -19.1674 44.5949C-18.3545 46.1305 -16.2122 46.2796 -15.1942 44.8715ZM34.8653 117.981V117.513C34.8653 113.821 36.6077 110.346 39.566 108.137L40.7693 107.239C44.2373 104.65 48.6704 103.721 52.8861 104.7L53.9499 104.947L63.8986 107.249C64.222 107.324 64.5566 107.337 64.885 107.288L66.7933 107.003C68.4115 106.761 68.9329 104.686 67.6211 103.708C67.1552 103.36 66.8808 102.814 66.8808 102.232V102.105C66.8808 101.126 67.5599 100.277 68.5156 100.062L70.9585 99.5131C72.4561 99.1766 73.2968 97.5797 72.7267 96.1545C72.3481 95.2079 71.4313 94.5872 70.4118 94.5872H69.3213C67.8172 94.5872 66.4336 95.41 65.7154 96.7315L65.0725 97.9144C64.9799 98.0849 64.8749 98.2484 64.7585 98.4036C63.0565 100.673 59.5975 100.495 58.1381 98.0621L57.8885 97.6462C56.8231 95.8704 54.6475 95.1004 52.7022 95.8106L46.9838 97.8983C46.4894 98.0788 46.0237 98.3301 45.6014 98.6444L42.183 101.188C40.8829 102.156 39.0169 101.564 38.5116 100.024C38.1581 98.9471 38.616 97.7703 39.6047 97.2153L40.6528 96.6269C41.697 96.0407 42.3434 94.9365 42.3434 93.7391C42.3434 92.7031 42.8282 91.7268 43.6535 91.1006L48.51 87.4164C48.9113 87.112 49.2352 86.7174 49.4555 86.2644C50.086 84.9684 51.5037 84.2522 52.921 84.5137L55.2586 84.9448C57.2155 85.3058 59.1805 84.3565 60.1141 82.5992L60.5917 81.7002C60.9707 80.9869 60.9884 80.1359 60.6395 79.4073C59.7537 77.5576 57.1558 77.462 56.1364 79.2416L55.2807 80.7354C54.6102 81.9059 53.0107 82.1193 52.0568 81.1655L51.9412 81.0499C51.6314 80.74 51.2111 80.5659 50.7728 80.5659C49.8602 80.5659 49.1204 79.8261 49.1204 78.9134V76.3828C49.1204 75.5066 49.3955 74.6525 49.907 73.941L54.0397 68.1929C56.2517 65.1162 60.0901 63.662 63.7854 64.5007L67.6294 65.373C68.2816 65.5211 68.8176 65.9833 69.06 66.6065L69.0863 66.6741C69.464 67.6453 69.0059 68.7414 68.0494 69.155L67.5328 69.3784C67.137 69.5496 66.8808 69.9396 66.8808 70.3708C66.8808 70.9679 67.3648 71.452 67.962 71.452H69.2283C70.3528 71.452 71.3194 70.6545 71.5331 69.5505L71.7111 68.631C71.9511 67.391 72.8436 66.3781 74.0435 65.984L80.3753 63.9042C81.8535 63.4186 82.9506 62.1674 83.2386 60.6384C83.5671 58.8951 84.9393 57.5365 86.6858 57.2255L87.3502 57.1072C88.7089 56.8652 89.9175 56.0977 90.7144 54.971L97.0928 45.9515C98.5193 43.9343 101.005 42.9539 103.425 43.4544L103.947 43.5625C105.389 43.8608 106.629 44.7733 107.342 46.0612C108.537 48.2179 111.115 49.1969 113.44 48.3774L115.313 47.7174C116.754 47.2097 118.347 47.3806 119.647 48.1825C121.255 49.1741 123.282 49.1865 124.902 48.2144L127.218 46.8248C129.055 45.7227 131.211 45.274 133.335 45.5516L140.14 46.441C142.51 46.7506 144.918 46.3941 147.096 45.4114C149.1 44.5072 151.302 44.1318 153.492 44.3211L161.117 44.98C162.136 45.0681 163.024 45.7084 163.43 46.6474C163.798 47.4963 163.719 48.4721 163.22 49.2511L162.648 50.1458C161.932 51.2645 161.713 52.6306 162.045 53.9165L162.345 55.0783C162.626 56.1654 162.66 57.3014 162.445 58.4033L161.85 61.4488C161.648 62.4855 160.922 63.343 159.933 63.7139C158.662 64.1906 157.861 65.4521 157.97 66.8053L158.795 77.0553C158.841 77.6299 158.437 78.1434 157.868 78.2345C157.328 78.3209 156.807 77.9994 156.641 77.4785L154.886 71.958C153.929 68.9469 150.815 67.1797 147.739 67.9016C146.331 68.2322 145.087 69.0568 144.235 70.2259L143.543 71.1742C141.777 73.5951 141.299 76.7235 142.26 79.5615L144.29 85.5532C145.071 87.8589 144.538 90.407 142.898 92.206L141.72 93.4975C141.092 94.1861 140.812 95.1232 140.96 96.0434L141.081 96.7993C141.361 98.5515 139.8 100.042 138.062 99.6797C136.252 99.3024 134.66 100.93 135.078 102.732L136.286 107.945C136.809 110.202 135.975 112.558 134.148 113.984L131.989 115.668C130.768 116.621 130.055 118.082 130.055 119.63V122.401C130.055 123.646 129.046 124.655 127.801 124.655H126.214C125.553 124.655 125.069 125.276 125.229 125.917C125.499 126.995 124.088 127.66 123.428 126.766L117.716 119.034C116.913 117.946 115.466 117.552 114.222 118.083L112.319 118.895C111.144 119.396 110.179 120.288 109.587 121.419L106.791 126.757C106.525 127.264 105.822 127.321 105.478 126.863L99.179 118.481C97.1819 115.823 94.3318 113.933 91.1066 113.127L87.5219 111.954C86.2041 111.523 85.1611 113.108 86.0784 114.148C86.2092 114.296 86.3708 114.414 86.5518 114.494L86.67 114.545C87.9745 115.118 88.2421 116.852 87.1708 117.791L85.4877 119.267C84.4576 120.17 82.9834 120.36 81.758 119.747L80.307 119.022C77.9273 117.832 75.3023 120.127 76.1635 122.644C76.575 123.847 77.7057 124.655 78.9771 124.655H79.0585C81.2864 124.655 82.781 126.943 81.8861 128.983L78.2589 137.253C78.0481 137.734 77.8798 138.232 77.7559 138.742L76.0936 145.587C75.5664 147.758 74.5786 149.79 73.1971 151.545L66.5766 159.957C65.539 161.276 63.954 162.046 62.2762 162.046C60.7886 162.046 59.365 161.44 58.3334 160.368L56.8679 158.846C54.9958 156.9 53.9499 154.306 53.9499 151.606V143.662L53.1255 136.963C52.8539 134.757 51.7737 132.73 50.0938 131.274C48.7482 130.107 47.0864 129.368 45.3194 129.148L44.6585 129.066C39.0648 128.371 34.8653 123.617 34.8653 117.981ZM-8.7225 53.1384L-9.91564 54.7912C-11.1038 56.4371 -13.6072 56.2629 -14.556 54.4683C-15.2355 53.183 -14.7918 51.5907 -13.5456 50.8419L-11.7983 49.792C-11.1528 49.4042 -10.3592 49.3538 -9.66981 49.6569C-8.31783 50.2512 -7.85808 51.9409 -8.7225 53.1384ZM-5.56461 55.7729L-6.76812 56.6198C-7.28228 56.9816 -7.58822 57.571 -7.58822 58.1997C-7.58822 58.8819 -7.22848 59.5135 -6.64174 59.8614L-3.67129 61.623C-1.9466 62.6457 -0.889131 64.5023 -0.889131 66.5074V66.8369C-0.889131 67.7139 -0.636247 68.5723 -0.160791 69.3092L0.523116 70.3693C1.47347 71.8423 3.41987 72.2979 4.92521 71.3995C6.18382 70.6484 6.78498 69.1486 6.39358 67.7361L4.39203 60.5132C3.81096 58.4163 2.31147 56.6953 0.313811 55.8327L-0.931436 55.295C-2.45383 54.6376 -4.20847 54.8186 -5.56461 55.7729ZM21.6926 38.204L9.92753 45.1046C8.92097 45.695 8.30262 46.7746 8.30262 47.9415C8.30262 48.7827 8.62492 49.5919 9.20325 50.2027L11.2572 52.3721C13.742 54.9964 14.7478 58.6905 13.9365 62.2122L12.2118 69.6991C11.957 70.805 12.2273 71.9666 12.9442 72.8464C14.2145 74.4055 16.5019 74.6544 18.0778 73.4051L25.9106 67.1957C28.7072 64.9786 30.5368 61.7647 31.0154 58.2281L31.3805 55.5302C31.5736 54.1036 31.9635 52.7106 32.539 51.3911L34.0015 48.0381C34.5667 46.7424 34.7681 45.3171 34.584 43.9155C34.1474 40.5906 31.6292 37.9198 28.3357 37.2886L27.7074 37.1681C25.6432 36.7725 23.5055 37.1406 21.6926 38.204ZM-66.7493 69.5431C-67.8265 63.7647 -66.8755 51.8205 -55.313 46.7274C-55.0729 46.6217 -54.8328 46.5101 -54.5919 46.3981C-53.579 45.9275 -52.5516 45.4501 -51.4516 45.3706C-49.1739 45.206 -45.6292 46.4417 -41.5675 51.6037C-41.4199 51.7912 -41.28 51.9724 -41.1447 52.1476L-41.1446 52.1477L-41.1444 52.1479C-40.1731 53.4059 -39.4426 54.352 -37.881 55.0561C-34.9116 56.3951 -32.927 53.7254 -30.9332 51.0433C-28.9449 48.3687 -26.9474 45.6818 -23.9551 46.9453C-23.1182 47.2986 -22.0848 48 -20.8185 49.1414C-19.4925 50.3366 -18.5374 51.8913 -17.8634 53.5443L-16.4351 57.0469C-15.9079 58.3397 -14.8877 59.3696 -13.5999 59.909C-10.1865 61.3385 -9.28151 65.7547 -11.8574 68.4116L-15.1145 71.7711C-17.1801 73.9017 -17.0836 77.316 -14.9008 79.3264L-13.6533 80.4755C-11.7885 82.193 -8.80976 81.7237 -7.56345 79.5159C-6.15458 77.0202 -2.63525 76.8208 -0.95347 79.1414L1.76121 82.8872C3.87199 85.7998 3.39198 89.8451 0.658209 92.1828L-15.2971 105.827C-16.0899 106.505 -16.5463 107.495 -16.5463 108.539C-16.5463 111.068 -19.1052 112.795 -21.4507 111.848L-23.0954 111.184C-25.9612 110.027 -29.0877 112.136 -29.0877 115.227C-29.0877 116.731 -28.3124 118.129 -27.0365 118.925L-19.6348 123.546C-17.0724 125.145 -13.9541 125.59 -11.0469 124.77C-8.14869 123.952 -5.0403 124.392 -2.4819 125.98L12.3378 135.18C16.0001 137.453 17.1197 142.269 14.8359 145.925L0.798048 168.397C0.0403733 169.61 -0.546693 170.921 -0.946611 172.294L-2.04072 176.05C-2.45812 177.484 -2.44328 179.008 -1.99807 180.433L-0.681024 184.647C-0.480241 185.29 -0.718416 185.988 -1.26986 186.374C-2.02316 186.902 -3.06746 186.658 -3.51042 185.853L-8.632 176.536C-9.53145 174.9 -10.003 173.063 -10.003 171.195V154.934C-10.003 151.569 -11.395 148.354 -13.8488 146.05L-15.3288 144.661C-17.5337 142.592 -18.4901 139.516 -17.8477 136.562C-17.0688 132.979 -18.6465 129.296 -21.7777 127.388L-32.0862 121.107C-32.881 120.623 -33.5549 119.964 -34.0567 119.18L-41.4262 107.669C-41.879 106.961 -42.9659 107.188 -43.0985 108.017C-43.2475 108.948 -44.5368 109.071 -44.8598 108.186L-47.8821 99.9008C-48.0723 99.3794 -48.1239 98.8174 -48.0317 98.2701L-46.4178 88.6845C-45.8867 85.5298 -46.3395 82.2881 -47.7149 79.3998L-51.825 70.7686C-52.7819 68.7592 -54.8091 67.4793 -57.0347 67.4793H-57.228C-58.3287 67.4793 -59.4007 67.8299 -60.2886 68.4803L-63.4743 70.814C-64.5662 71.6139 -66.119 71.1775 -66.6344 69.9259C-66.6858 69.8011 -66.7245 69.6758 -66.7493 69.5431ZM132.542 131.321L132.014 131.943C130.958 133.187 131.054 135.039 132.234 136.167L132.746 136.656C133.295 137.18 134.088 137.358 134.808 137.118C135.645 136.839 136.209 136.057 136.209 135.175V132.667C136.209 131.906 135.793 131.205 135.124 130.841C134.259 130.369 133.18 130.569 132.542 131.321ZM132.002 157.042V158.793C132.002 162.138 134.714 164.85 138.059 164.85C138.742 164.85 139.42 164.734 140.064 164.508L141.045 164.164C142.647 163.602 144.398 163.646 145.97 164.287C146.878 164.658 147.698 165.217 148.374 165.928L151.159 168.851C151.726 169.447 152.427 169.898 153.203 170.169C155.511 170.973 158.068 170.052 159.333 167.96L160.414 166.172C160.942 165.299 161.292 164.331 161.445 163.322L162.103 158.979C162.284 157.786 162.062 156.566 161.473 155.512L156.977 147.47C156.367 146.378 154.748 146.54 154.366 147.731C154.176 148.324 153.625 148.725 153.003 148.725H152.619C151.832 148.725 151.122 148.254 150.816 147.529L150.549 146.897C149.845 145.227 147.829 144.563 146.269 145.487L141.737 148.173C141.118 148.539 140.451 148.816 139.755 148.995L137.869 149.478C134.417 150.365 132.002 153.477 132.002 157.042ZM121.875 133.904L124.299 137.72C124.585 138.17 125.081 138.443 125.614 138.443C126.475 138.443 127.173 137.745 127.173 136.885V136.745C127.173 136.333 127.023 135.935 126.751 135.626L123.906 132.382C123.534 131.958 122.926 131.829 122.413 132.067C121.716 132.391 121.463 133.255 121.875 133.904ZM78.4467 150.721L80.9155 146.934C81.3355 146.289 82.2265 146.162 82.8102 146.663C83.2391 147.03 83.3741 147.637 83.142 148.152L81.3691 152.085C81.1998 152.46 80.8997 152.761 80.5247 152.932L80.3979 152.99C79.6146 153.347 78.6904 153.001 78.3338 152.217C78.1129 151.732 78.1554 151.167 78.4467 150.721ZM153.606 140.348L153.922 140.638C154.403 141.08 155.033 141.325 155.686 141.325H157.184C157.837 141.325 158.482 141.47 159.072 141.749L161.449 142.872C162.032 143.148 162.729 142.961 163.096 142.431C163.517 141.824 163.356 140.99 162.741 140.582L156.608 136.513C156.208 136.248 155.738 136.106 155.258 136.106C153.031 136.106 151.965 138.843 153.606 140.348ZM171.571 178.753L167.981 181.792C167.57 182.139 167.436 182.714 167.65 183.207C167.891 183.759 168.499 184.053 169.081 183.898L170.193 183.602C171.051 183.373 171.728 182.715 171.983 181.864L172.693 179.487C172.892 178.821 172.102 178.304 171.571 178.753ZM174.549 174.793L175.916 170.292C176.118 169.627 177.062 169.632 177.256 170.3L177.95 172.682C178.198 173.534 177.986 174.455 177.389 175.112L176.616 175.965C176.212 176.411 175.541 176.494 175.04 176.161C174.592 175.863 174.393 175.307 174.549 174.793Z" fill="#A7CF75"/>
</g>
<g filter="url(#filter2_d_103_22)">
<path fill-rule="evenodd" clip-rule="evenodd" d="M246.02 49.3891L253.136 43.0038C256.272 40.1899 254.444 34.9891 250.237 34.7567C248.558 34.6639 246.956 35.4687 246.029 36.8708L245.021 38.3951C244.48 39.2116 244.287 40.2091 244.482 41.1683L244.606 41.7763C244.86 43.0213 244.262 44.2845 243.139 44.8783L242.947 44.9799C241.3 45.8503 241.003 48.0845 242.366 49.3544C243.391 50.3104 244.977 50.3255 246.02 49.3891ZM241.914 40.6601L241.218 39.0585C240.713 37.8975 239.266 37.4981 238.237 38.2361C237.714 38.6116 237.405 39.2176 237.408 39.8618L237.418 41.6081C237.425 42.8546 238.406 43.8778 239.651 43.9375C241.386 44.0207 242.607 42.2536 241.914 40.6601ZM231.43 44.8715L232.453 43.4562C233.195 42.4302 232.801 40.9815 231.641 40.4726C231.051 40.2136 230.373 40.2567 229.82 40.5882L228.323 41.4866C227.254 42.1279 226.873 43.4933 227.457 44.5949C228.27 46.1305 230.412 46.2796 231.43 44.8715ZM281.489 117.981V117.513C281.489 113.821 283.232 110.346 286.19 108.137L287.393 107.239C290.861 104.65 295.294 103.721 299.51 104.7L300.574 104.947L310.523 107.249C310.846 107.324 311.181 107.337 311.509 107.288L313.417 107.003C315.036 106.761 315.557 104.686 314.245 103.708C313.779 103.36 313.505 102.814 313.505 102.232V102.105C313.505 101.126 314.184 100.277 315.14 100.062L317.583 99.5131C319.08 99.1766 319.921 97.5797 319.351 96.1545C318.972 95.2079 318.055 94.5872 317.036 94.5872H315.945C314.441 94.5872 313.058 95.41 312.339 96.7315L311.697 97.9144C311.604 98.0849 311.499 98.2484 311.383 98.4036C309.681 100.673 306.222 100.495 304.762 98.0621L304.513 97.6462C303.447 95.8704 301.272 95.1004 299.326 95.8106L293.608 97.8983C293.113 98.0788 292.648 98.3301 292.225 98.6444L288.807 101.188C287.507 102.156 285.641 101.564 285.136 100.024C284.782 98.9471 285.24 97.7703 286.229 97.2153L287.277 96.6269C288.321 96.0407 288.967 94.9365 288.967 93.7391C288.967 92.7031 289.452 91.7268 290.278 91.1006L295.134 87.4164C295.535 87.112 295.859 86.7174 296.08 86.2644C296.71 84.9684 298.128 84.2522 299.545 84.5137L301.883 84.9448C303.84 85.3058 305.805 84.3565 306.738 82.5992L307.216 81.7002C307.595 80.9869 307.613 80.1359 307.264 79.4073C306.378 77.5576 303.78 77.462 302.76 79.2416L301.905 80.7354C301.234 81.9059 299.635 82.1193 298.681 81.1655L298.565 81.0499C298.255 80.74 297.835 80.5659 297.397 80.5659C296.484 80.5659 295.744 79.8261 295.744 78.9134V76.3828C295.744 75.5066 296.02 74.6525 296.531 73.941L300.664 68.1929C302.876 65.1162 306.714 63.662 310.41 64.5007L314.253 65.373C314.906 65.5211 315.442 65.9833 315.684 66.6065L315.71 66.6741C316.088 67.6453 315.63 68.7414 314.673 69.155L314.157 69.3784C313.761 69.5496 313.505 69.9396 313.505 70.3708C313.505 70.9679 313.989 71.452 314.586 71.452H315.852C316.977 71.452 317.943 70.6545 318.157 69.5505L318.335 68.631C318.575 67.391 319.468 66.3781 320.668 65.984L326.999 63.9042C328.478 63.4186 329.575 62.1674 329.863 60.6384C330.191 58.8951 331.563 57.5365 333.31 57.2255L333.974 57.1072C335.333 56.8652 336.542 56.0977 337.338 54.971L343.717 45.9515C345.143 43.9343 347.63 42.9539 350.049 43.4544L350.571 43.5625C352.013 43.8608 353.253 44.7733 353.967 46.0612C355.162 48.2179 357.739 49.1969 360.064 48.3774L361.937 47.7174C363.378 47.2097 364.971 47.3806 366.271 48.1825C367.88 49.1741 369.906 49.1865 371.526 48.2144L373.843 46.8248C375.679 45.7227 377.835 45.274 379.959 45.5516L386.765 46.441C389.134 46.7506 391.542 46.3941 393.72 45.4114C395.724 44.5072 397.926 44.1318 400.116 44.3211L407.741 44.98C408.76 45.0681 409.649 45.7084 410.055 46.6474C410.422 47.4963 410.343 48.4721 409.844 49.2511L409.272 50.1458C408.556 51.2645 408.338 52.6306 408.669 53.9165L408.969 55.0783C409.25 56.1654 409.284 57.3014 409.069 58.4033L408.475 61.4488C408.272 62.4855 407.547 63.343 406.558 63.7139C405.286 64.1906 404.485 65.4521 404.594 66.8053L405.419 77.0553C405.465 77.6299 405.061 78.1434 404.492 78.2345C403.952 78.3209 403.431 77.9994 403.265 77.4785L401.51 71.958C400.553 68.9469 397.44 67.1797 394.364 67.9016C392.955 68.2322 391.711 69.0568 390.859 70.2259L390.167 71.1742C388.401 73.5951 387.923 76.7235 388.884 79.5615L390.914 85.5532C391.695 87.8589 391.162 90.407 389.522 92.206L388.344 93.4975C387.716 94.1861 387.436 95.1232 387.584 96.0434L387.705 96.7993C387.985 98.5515 386.424 100.042 384.686 99.6797C382.876 99.3024 381.284 100.93 381.702 102.732L382.91 107.945C383.433 110.202 382.599 112.558 380.772 113.984L378.613 115.668C377.392 116.621 376.679 118.082 376.679 119.63V122.401C376.679 123.646 375.67 124.655 374.425 124.655H372.838C372.177 124.655 371.693 125.276 371.853 125.917C372.123 126.995 370.712 127.66 370.052 126.766L364.34 119.034C363.537 117.946 362.09 117.552 360.846 118.083L358.943 118.895C357.768 119.396 356.803 120.288 356.211 121.419L353.415 126.757C353.149 127.264 352.446 127.321 352.102 126.863L345.803 118.481C343.806 115.823 340.956 113.933 337.731 113.127L334.146 111.954C332.828 111.523 331.785 113.108 332.702 114.148C332.833 114.296 332.995 114.414 333.176 114.494L333.294 114.545C334.599 115.118 334.866 116.852 333.795 117.791L332.112 119.267C331.082 120.17 329.607 120.36 328.382 119.747L326.931 119.022C324.551 117.832 321.926 120.127 322.788 122.644C323.199 123.847 324.33 124.655 325.601 124.655H325.683C327.91 124.655 329.405 126.943 328.51 128.983L324.883 137.253C324.672 137.734 324.504 138.232 324.38 138.742L322.718 145.587C322.191 147.758 321.203 149.79 319.821 151.545L313.201 159.957C312.163 161.276 310.578 162.046 308.9 162.046C307.413 162.046 305.989 161.44 304.957 160.368L303.492 158.846C301.62 156.9 300.574 154.306 300.574 151.606V143.662L299.75 136.963C299.478 134.757 298.398 132.73 296.718 131.274C295.372 130.107 293.71 129.368 291.944 129.148L291.283 129.066C285.689 128.371 281.489 123.617 281.489 117.981ZM237.902 53.1384L236.708 54.7912C235.52 56.4371 233.017 56.2629 232.068 54.4683C231.389 53.183 231.832 51.5907 233.078 50.8419L234.826 49.792C235.471 49.4042 236.265 49.3538 236.954 49.6569C238.306 50.2512 238.766 51.9409 237.902 53.1384ZM241.059 55.7729L239.856 56.6198C239.342 56.9816 239.036 57.571 239.036 58.1997C239.036 58.8819 239.396 59.5135 239.982 59.8614L242.953 61.623C244.677 62.6457 245.735 64.5023 245.735 66.5074V66.8369C245.735 67.7139 245.988 68.5723 246.463 69.3092L247.147 70.3693C248.098 71.8423 250.044 72.2979 251.549 71.3995C252.808 70.6484 253.409 69.1486 253.018 67.7361L251.016 60.5132C250.435 58.4163 248.936 56.6953 246.938 55.8327L245.693 55.295C244.17 54.6376 242.416 54.8186 241.059 55.7729ZM268.317 38.204L256.552 45.1046C255.545 45.695 254.927 46.7746 254.927 47.9415C254.927 48.7827 255.249 49.5919 255.827 50.2027L257.881 52.3721C260.366 54.9964 261.372 58.6905 260.561 62.2122L258.836 69.6991C258.581 70.805 258.851 71.9666 259.568 72.8464C260.839 74.4055 263.126 74.6544 264.702 73.4051L272.535 67.1957C275.331 64.9786 277.161 61.7647 277.639 58.2281L278.005 55.5302C278.198 54.1036 278.588 52.7106 279.163 51.3911L280.626 48.0381C281.191 46.7424 281.392 45.3171 281.208 43.9155C280.771 40.5906 278.253 37.9198 274.96 37.2886L274.331 37.1681C272.267 36.7725 270.13 37.1406 268.317 38.204ZM179.875 69.5431C178.798 63.7647 179.749 51.8205 191.311 46.7274C191.551 46.6217 191.791 46.5101 192.032 46.3981C193.045 45.9275 194.072 45.4501 195.172 45.3706C197.45 45.206 200.995 46.4417 205.057 51.6037C205.204 51.7912 205.344 51.9724 205.479 52.1476L205.479 52.1477L205.48 52.1479C206.451 53.4059 207.182 54.352 208.743 55.0561C211.712 56.3951 213.697 53.7254 215.691 51.0433C217.679 48.3687 219.677 45.6818 222.669 46.9453C223.506 47.2986 224.539 48 225.806 49.1414C227.132 50.3366 228.087 51.8913 228.761 53.5443L230.189 57.0469C230.716 58.3397 231.736 59.3696 233.024 59.909C236.438 61.3385 237.343 65.7547 234.767 68.4116L231.51 71.7711C229.444 73.9017 229.541 77.316 231.723 79.3264L232.971 80.4755C234.836 82.193 237.814 81.7237 239.061 79.5159C240.47 77.0202 243.989 76.8208 245.671 79.1414L248.385 82.8872C250.496 85.7998 250.016 89.8451 247.282 92.1828L231.327 105.827C230.534 106.505 230.078 107.495 230.078 108.539C230.078 111.068 227.519 112.795 225.173 111.848L223.529 111.184C220.663 110.027 217.536 112.136 217.536 115.227C217.536 116.731 218.312 118.129 219.588 118.925L226.989 123.546C229.552 125.145 232.67 125.59 235.577 124.77C238.475 123.952 241.584 124.392 244.142 125.98L258.962 135.18C262.624 137.453 263.744 142.269 261.46 145.925L247.422 168.397C246.664 169.61 246.077 170.921 245.677 172.294L244.583 176.05C244.166 177.484 244.181 179.008 244.626 180.433L245.943 184.647C246.144 185.29 245.906 185.988 245.354 186.374C244.601 186.902 243.557 186.658 243.114 185.853L237.992 176.536C237.093 174.9 236.621 173.063 236.621 171.195V154.934C236.621 151.569 235.229 148.354 232.775 146.05L231.295 144.661C229.09 142.592 228.134 139.516 228.776 136.562C229.555 132.979 227.978 129.296 224.846 127.388L214.538 121.107C213.743 120.623 213.069 119.964 212.567 119.18L205.198 107.669C204.745 106.961 203.658 107.188 203.526 108.017C203.377 108.948 202.087 109.071 201.764 108.186L198.742 99.9008C198.552 99.3794 198.5 98.8174 198.592 98.2701L200.206 88.6845C200.737 85.5298 200.285 82.2881 198.909 79.3998L194.799 70.7686C193.842 68.7592 191.815 67.4793 189.589 67.4793H189.396C188.295 67.4793 187.223 67.8299 186.336 68.4803L183.15 70.814C182.058 71.6139 180.505 71.1775 179.99 69.9259C179.938 69.8011 179.9 69.6758 179.875 69.5431ZM379.166 131.321L378.638 131.943C377.582 133.187 377.678 135.039 378.859 136.167L379.37 136.656C379.919 137.18 380.713 137.358 381.432 137.118C382.269 136.839 382.833 136.057 382.833 135.175V132.667C382.833 131.906 382.417 131.205 381.748 130.841C380.883 130.369 379.805 130.569 379.166 131.321ZM378.626 157.042V158.793C378.626 162.138 381.338 164.85 384.683 164.85C385.366 164.85 386.044 164.734 386.688 164.508L387.669 164.164C389.271 163.602 391.022 163.646 392.594 164.287C393.502 164.658 394.322 165.217 394.998 165.928L397.783 168.851C398.35 169.447 399.051 169.898 399.827 170.169C402.135 170.973 404.692 170.052 405.957 167.96L407.038 166.172C407.566 165.299 407.916 164.331 408.069 163.322L408.727 158.979C408.908 157.786 408.686 156.566 408.097 155.512L403.601 147.47C402.991 146.378 401.372 146.54 400.99 147.731C400.8 148.324 400.249 148.725 399.627 148.725H399.243C398.456 148.725 397.746 148.254 397.44 147.529L397.173 146.897C396.469 145.227 394.453 144.563 392.893 145.487L388.361 148.173C387.743 148.539 387.075 148.816 386.379 148.995L384.494 149.478C381.041 150.365 378.626 153.477 378.626 157.042ZM368.499 133.904L370.923 137.72C371.209 138.17 371.705 138.443 372.238 138.443C373.099 138.443 373.797 137.745 373.797 136.885V136.745C373.797 136.333 373.647 135.935 373.375 135.626L370.53 132.382C370.158 131.958 369.55 131.829 369.038 132.067C368.34 132.391 368.087 133.255 368.499 133.904ZM325.071 150.721L327.539 146.934C327.959 146.289 328.851 146.162 329.434 146.663C329.863 147.03 329.998 147.637 329.766 148.152L327.993 152.085C327.824 152.46 327.524 152.761 327.149 152.932L327.022 152.99C326.239 153.347 325.314 153.001 324.958 152.217C324.737 151.732 324.779 151.167 325.071 150.721ZM400.23 140.348L400.546 140.638C401.027 141.08 401.657 141.325 402.31 141.325H403.808C404.461 141.325 405.106 141.47 405.696 141.749L408.073 142.872C408.656 143.148 409.353 142.961 409.72 142.431C410.141 141.824 409.98 140.99 409.365 140.582L403.232 136.513C402.832 136.248 402.362 136.106 401.882 136.106C399.655 136.106 398.589 138.843 400.23 140.348ZM418.195 178.753L414.605 181.792C414.194 182.139 414.06 182.714 414.274 183.207C414.515 183.759 415.123 184.053 415.705 183.898L416.817 183.602C417.675 183.373 418.353 182.715 418.607 181.864L419.317 179.487C419.516 178.821 418.726 178.304 418.195 178.753ZM421.173 174.793L422.54 170.292C422.742 169.627 423.686 169.632 423.88 170.3L424.574 172.682C424.822 173.534 424.61 174.455 424.013 175.112L423.24 175.965C422.836 176.411 422.165 176.494 421.664 176.161C421.216 175.863 421.017 175.307 421.173 174.793Z" fill="#A7CF75"/>
</g>
<g opacity="0.6" filter="url(#filter3_f_103_22)">
<path d="M145.976 27.5349L145.3 28.4215C143.669 30.5607 140.872 31.4473 138.307 30.6382C137.686 30.4423 137.039 30.3427 136.388 30.3427H130.815C129.094 30.3427 127.477 31.1666 126.465 32.559C124.717 34.9653 125.255 38.3337 127.665 40.0762L130.597 42.1958C132.541 43.6012 134.967 44.1709 137.333 43.778L142.276 42.9575C143.115 42.8181 143.937 42.5906 144.728 42.2785C149.09 40.5586 154.054 41.518 157.461 44.7396L162.022 49.053C162.844 49.83 163.735 50.5302 164.684 51.1448C172.947 56.4954 183.951 54.4559 189.748 46.4993L192.481 42.748C194.004 40.6584 194.55 38.0133 193.98 35.4915L193.019 31.2404C192.382 28.4218 189.475 26.7471 186.717 27.6098C185.698 27.9286 184.81 28.5684 184.185 29.4337L183.901 29.8266C182.264 32.0912 179.349 33.0337 176.696 32.1555L158.132 26.0083L155.042 24.8808C151.765 23.6847 148.091 24.7603 145.976 27.5349Z" fill="white"/>
<path d="M86.3764 106.452L85.7006 107.339C84.07 109.478 81.2729 110.365 78.7078 109.556L78.5888 109.518C78.0468 109.347 77.4817 109.26 76.9133 109.26H75.12C71.9733 109.26 69.8504 112.476 71.0871 115.37C72.799 119.979 77.5398 122.728 82.3909 121.922L82.8119 121.852C83.5609 121.728 84.2947 121.525 85.001 121.246L85.129 121.196C89.4911 119.476 94.4544 120.435 97.8613 123.657L102.423 127.97C103.244 128.747 104.135 129.448 105.084 130.062C113.348 135.413 124.352 133.373 130.149 125.417L131.373 123.737C133.854 120.331 134.745 116.02 133.816 111.909C132.82 107.504 129.843 103.806 125.752 101.893L125.525 101.787C121.903 99.5125 117.464 98.9442 113.385 100.233L101.291 104.054C99.5024 104.619 97.5767 104.577 95.8143 103.934L95.4429 103.798C92.1656 102.602 88.4913 103.678 86.3764 106.452Z" fill="white"/>
<path d="M228.925 159.744L199.167 167.003C196.928 167.55 194.582 167.472 192.384 166.779L191.35 166.452C190.808 166.281 190.243 166.194 189.674 166.194H187.881C184.734 166.194 182.611 169.41 183.848 172.304C185.56 176.914 190.301 179.662 195.152 178.857L196.699 178.6L222.509 176.41C230.751 175.711 238.9 178.561 244.909 184.244L245.608 184.905C246.43 185.682 247.321 186.382 248.27 186.996C256.533 192.347 267.537 190.308 273.334 182.351L274.558 180.671C277.04 177.265 277.93 172.954 277.001 168.843C276.005 164.438 273.028 160.74 268.937 158.827L268.711 158.721C265.088 156.447 260.65 155.878 256.571 157.167L246.332 160.402C243.34 161.347 240.119 161.277 237.172 160.201C234.529 159.236 231.659 159.077 228.925 159.744Z" fill="white"/>
<path d="M46.4866 57.447L47.1624 58.3336C48.793 60.4728 51.5901 61.3594 54.1553 60.5503L54.2742 60.5128C54.8163 60.3418 55.3813 60.2548 55.9497 60.2548H57.743C60.8897 60.2548 63.0126 63.4706 61.776 66.3642C60.064 70.9741 55.3232 73.7223 50.4721 72.9169L50.0511 72.847C49.3021 72.7227 48.5684 72.5196 47.862 72.2411L47.734 72.1906C43.3719 70.4707 38.4086 71.4301 35.0018 74.6517L30.4405 78.9651C29.6189 79.7421 28.7279 80.4423 27.7786 81.0569C19.5153 86.4075 8.51111 84.368 2.71424 76.4114L1.49031 74.7314C-0.991108 71.3255 -1.88156 67.0142 -0.952511 62.9039C0.0432396 58.4984 3.02005 54.8008 7.1114 52.8876L7.33762 52.7818C10.9601 50.5071 15.399 49.9388 19.4776 51.2275L31.5717 55.0487C33.3607 55.614 35.2863 55.5717 37.0487 54.9285L37.4201 54.7929C40.6974 53.5968 44.3717 54.6724 46.4866 57.447Z" fill="white"/>
</g>
<g opacity="0.4" filter="url(#filter4_f_103_22)">
<path d="M95.1905 -8.32139V-8.32139C27.1806 64.4771 69.0033 183.699 167.587 198.058L199.196 202.661L-80.8919 172.017L95.1905 -8.32139Z" fill="#1E819A"/>
</g>
<g opacity="0.3" filter="url(#filter5_f_103_22)">
<path d="M118.073 216.18V216.18C190.452 147.724 156.077 26.1449 58.5685 5.72176L27.3051 -0.82638L304.963 47.0687L118.073 216.18Z" fill="white"/>
</g>
</g>
</g>
<defs>
<filter id="filter0_d_103_22" x="0.87388" y="0.0795879" width="208.26" height="208.26" filterUnits="userSpaceOnUse" color-interpolation-filters="sRGB">
<feFlood flood-opacity="0" result="BackgroundImageFix"/>
<feColorMatrix in="SourceAlpha" type="matrix" values="0 0 0 0 0 0 0 0 0 0 0 0 0 0 0 0 0 0 127 0" result="hardAlpha"/>
<feOffset/>
<feGaussianBlur stdDeviation="10.9611"/>
<feComposite in2="hardAlpha" operator="out"/>
<feColorMatrix type="matrix" values="0 0 0 0 0 0 0 0 0 0.458156 0 0 0 0 0.566667 0 0 0 0.6 0"/>
<feBlend mode="normal" in2="BackgroundImageFix" result="effect1_dropShadow_103_22"/>
<feBlend mode="normal" in="SourceGraphic" in2="effect1_dropShadow_103_22" result="shape"/>
</filter>
<filter id="filter1_d_103_22" x="-72.5653" y="30.365" width="256.097" height="162.866" filterUnits="userSpaceOnUse" color-interpolation-filters="sRGB">
<feFlood flood-opacity="0" result="BackgroundImageFix"/>
<feColorMatrix in="SourceAlpha" type="matrix" values="0 0 0 0 0 0 0 0 0 0 0 0 0 0 0 0 0 0 127 0" result="hardAlpha"/>
<feOffset dy="1.09611"/>
<feGaussianBlur stdDeviation="2.74027"/>
<feComposite in2="hardAlpha" operator="out"/>
<feColorMatrix type="matrix" values="0 0 0 0 0.160417 0 0 0 0 0.619952 0 0 0 0 0.7 0 0 0 1 0"/>
<feBlend mode="normal" in2="BackgroundImageFix" result="effect1_dropShadow_103_22"/>
<feBlend mode="normal" in="SourceGraphic" in2="effect1_dropShadow_103_22" result="shape"/>
</filter>
<filter id="filter2_d_103_22" x="174.059" y="30.365" width="256.098" height="162.866" filterUnits="userSpaceOnUse" color-interpolation-filters="sRGB">
<feFlood flood-opacity="0" result="BackgroundImageFix"/>
<feColorMatrix in="SourceAlpha" type="matrix" values="0 0 0 0 0 0 0 0 0 0 0 0 0 0 0 0 0 0 127 0" result="hardAlpha"/>
<feOffset dy="1.09611"/>
<feGaussianBlur stdDeviation="2.74027"/>
<feComposite in2="hardAlpha" operator="out"/>
<feColorMatrix type="matrix" values="0 0 0 0 0.160417 0 0 0 0 0.619952 0 0 0 0 0.7 0 0 0 1 0"/>
<feBlend mode="normal" in2="BackgroundImageFix" result="effect1_dropShadow_103_22"/>
<feBlend mode="normal" in="SourceGraphic" in2="effect1_dropShadow_103_22" result="shape"/>
</filter>
<filter id="filter3_f_103_22" x="-396.185" y="18.9169" width="679.026" height="176.54" filterUnits="userSpaceOnUse" color-interpolation-filters="sRGB">
<feFlood flood-opacity="0" result="BackgroundImageFix"/>
<feBlend mode="normal" in="SourceGraphic" in2="BackgroundImageFix" result="shape"/>
<feGaussianBlur stdDeviation="2.74027" result="effect1_foregroundBlur_103_22"/>
</filter>
<filter id="filter4_f_103_22" x="-91.853" y="-19.2825" width="302.01" height="232.905" filterUnits="userSpaceOnUse" color-interpolation-filters="sRGB">
<feFlood flood-opacity="0" result="BackgroundImageFix"/>
<feBlend mode="normal" in="SourceGraphic" in2="BackgroundImageFix" result="shape"/>
<feGaussianBlur stdDeviation="5.48054" result="effect1_foregroundBlur_103_22"/>
</filter>
<filter id="filter5_f_103_22" x="5.38291" y="-22.7485" width="321.503" height="260.851" filterUnits="userSpaceOnUse" color-interpolation-filters="sRGB">
<feFlood flood-opacity="0" result="BackgroundImageFix"/>
<feBlend mode="normal" in="SourceGraphic" in2="BackgroundImageFix" result="shape"/>
<feGaussianBlur stdDeviation="10.9611" result="effect1_foregroundBlur_103_22"/>
</filter>
<linearGradient id="paint0_linear_103_22" x1="64.9792" y1="107.44" x2="204.871" y2="95.5541" gradientUnits="userSpaceOnUse">
<stop stop-color="#228EA9"/>
<stop offset="1" stop-color="#02DEFE"/>
</linearGradient>
<clipPath id="clip0_103_22">
<rect x="22.796" y="22.0017" width="164.416" height="164.416" rx="82.208" fill="white"/>
</clipPath>
</defs>
</svg>
