<svg width="213" height="213" viewBox="0 0 213 213" fill="none" xmlns="http://www.w3.org/2000/svg">
<g filter="url(#filter0_d_104_208)">
<g clip-path="url(#clip0_104_208)">
<rect x="21.7188" y="35.3569" width="156.48" height="156.48" rx="78.2401" transform="rotate(-5 21.7188 35.3569)" fill="url(#paint0_linear_104_208)"/>
<g opacity="0.2">
<path d="M106.35 131.828C106.224 130.393 103.993 128.761 102.558 128.887C101.123 129.012 98.7904 129.211 98.9159 130.645C99.0415 132.08 101.578 134.209 103.013 134.083C104.448 133.957 106.475 133.262 106.35 131.828Z" fill="#FFB802"/>
<path d="M138.313 88.7146C138.187 87.2797 135.956 85.6483 134.521 85.7738C133.087 85.8994 130.754 86.0975 130.879 87.5323C131.005 88.9672 133.541 91.0955 134.976 90.97C136.411 90.8444 138.439 90.1494 138.313 88.7146Z" fill="#FFB802"/>
<path d="M164.225 148.493C164.099 147.058 161.868 145.427 160.433 145.553C158.998 145.678 156.666 145.876 156.791 147.311C156.917 148.746 159.453 150.874 160.888 150.749C162.323 150.623 164.35 149.928 164.225 148.493Z" fill="#FFB802"/>
<path d="M50.7722 49.8984C50.8977 51.3333 53.1288 52.9647 54.5637 52.8392C55.9986 52.7136 58.3314 52.5155 58.2059 51.0807C58.0804 49.6458 55.1218 50.1725 53.6869 50.298C52.252 50.4235 50.6466 48.4636 50.7722 49.8984Z" fill="#FFB802"/>
<path d="M145.933 43.1837C145.807 41.7489 143.576 40.1175 142.141 40.243C140.706 40.3685 138.373 40.5667 138.499 42.0015C138.624 43.4364 142.233 45.848 143.668 45.7224C145.103 45.5969 146.058 44.6186 145.933 43.1837Z" fill="#FFB802"/>
<path d="M48.6404 87.1352C48.5148 85.7003 50.4288 83.7062 51.8637 83.5807C53.2985 83.4552 55.6304 83.2452 55.7559 84.6801C55.8814 86.1149 53.7531 88.6513 52.3183 88.7769C50.8834 88.9024 48.7659 88.57 48.6404 87.1352Z" fill="#FFB802"/>
<path d="M105.804 136.064C105.678 134.629 103.629 135.076 102.194 135.202C100.759 135.327 98.2447 133.447 98.3703 134.882C98.4958 136.317 101.032 138.445 102.467 138.319C103.902 138.194 105.93 137.499 105.804 136.064Z" fill="#D66C14"/>
<path d="M55.7925 153.922C55.6669 152.487 56.9546 150.679 55.5197 150.804C54.0848 150.93 50.5374 150.711 50.6629 152.146C50.7884 153.58 53.3248 155.709 54.7597 155.583C56.1946 155.458 55.918 155.357 55.7925 153.922Z" fill="#D66C14"/>
</g>
<g opacity="0.2">
<path d="M132.913 130.135C131.856 129.156 131.936 126.393 132.915 125.337C133.894 124.28 135.481 122.559 136.538 123.538C137.594 124.517 137.72 127.826 136.741 128.882C135.762 129.939 133.969 131.114 132.913 130.135Z" fill="#FFB802"/>
<path d="M79.2568 128.944C78.2003 127.965 78.2799 125.202 79.259 124.146C80.2381 123.089 81.8252 121.368 82.8816 122.347C83.938 123.326 84.0637 126.635 83.0846 127.691C82.1056 128.748 80.3132 129.923 79.2568 128.944Z" fill="#FFB802"/>
<path d="M110.586 186.071C109.529 185.091 109.609 182.329 110.588 181.272C111.567 180.216 113.154 178.495 114.211 179.474C115.267 180.453 115.393 183.761 114.414 184.818C113.435 185.874 111.642 187.05 110.586 186.071Z" fill="#FFB802"/>
<path d="M102.279 35.9924C103.336 36.9715 103.256 39.7343 102.277 40.7907C101.298 41.8471 99.7109 43.5684 98.6545 42.5893C97.5981 41.6102 99.8284 39.5962 100.808 38.5398C101.787 37.4834 101.223 35.0133 102.279 35.9924Z" fill="#FFB802"/>
<path d="M38.6194 107.042C37.563 106.063 37.6426 103.3 38.6216 102.244C39.6007 101.187 41.1878 99.4659 42.2442 100.445C43.3007 101.424 42.9928 105.753 42.0137 106.81C41.0346 107.866 39.6758 108.021 38.6194 107.042Z" fill="#FFB802"/>
<path d="M133 57.1435C131.943 56.1644 129.195 56.4534 128.216 57.5098C127.236 58.5662 125.641 60.2794 126.697 61.2584C127.753 62.2375 131.062 62.1118 132.041 61.0554C133.02 59.999 134.056 58.1226 133 57.1435Z" fill="#FFB802"/>
<path d="M136.594 132.302C135.537 131.323 137.147 129.978 138.126 128.922C139.105 127.865 139.162 124.726 140.219 125.705C141.275 126.684 141.401 129.993 140.422 131.049C139.443 132.106 137.65 133.281 136.594 132.302Z" fill="#D66C14"/>
<path d="M181.369 103.749C180.312 102.77 178.094 102.678 179.073 101.622C180.052 100.565 182.055 97.6287 183.111 98.6078C184.168 99.5869 184.293 102.896 183.314 103.952C182.335 105.008 182.425 104.728 181.369 103.749Z" fill="#D66C14"/>
</g>
<g opacity="0.2">
<path d="M191.906 93.631C190.85 92.6519 190.929 89.8891 191.908 88.8327C192.887 87.7763 194.474 86.055 195.531 87.0341C196.587 88.0132 196.279 92.3423 195.3 93.3987C194.321 94.4551 192.963 94.6101 191.906 93.631Z" fill="#FFB802"/>
</g>
<g filter="url(#filter1_f_104_208)">
<path opacity="0.8" d="M-1.97994 123.561L26.1333 108.729C43.8339 99.3903 64.5636 97.6238 83.589 103.833V103.833C102.507 110.007 123.114 108.297 140.755 99.0888L141.907 98.4878C159.689 89.2062 180.561 87.4722 199.658 93.6094V93.6094C218.833 99.7715 239.843 97.9125 257.614 88.434V88.434C275.432 78.9303 296.397 77.0765 315.595 83.3417V83.3417C334.792 89.607 355.714 87.7765 373.532 78.2729V78.2729C391.35 68.7693 412.272 66.9388 431.469 73.2041L461.517 83.0105" stroke="#FFB802" stroke-width="8.34561"/>
<path opacity="0.5" d="M-22.4801 150.953L5.63319 136.121C23.3338 126.782 44.0634 125.016 63.0889 131.225V131.225C82.0066 137.399 102.614 135.689 120.255 126.481L121.407 125.88C139.189 116.598 160.061 114.864 179.158 121.001V121.001C198.333 127.164 219.343 125.304 237.114 115.826V115.826C254.931 106.322 275.897 104.468 295.095 110.734V110.734C314.292 116.999 335.214 115.169 353.032 105.665V105.665C370.85 96.1612 391.771 94.3308 410.969 100.596L441.017 110.402" stroke="#FFB802" stroke-width="6.25921"/>
<path d="M-8.95589 133.596L19.1574 118.764C36.858 109.425 57.5876 107.659 76.6131 113.868V113.868C95.5307 120.042 116.138 118.332 133.779 109.124L134.931 108.523C152.713 99.2412 173.585 97.5072 192.682 103.644V103.644C211.857 109.807 232.867 107.948 250.638 98.469V98.469C268.456 88.9654 289.421 87.1116 308.619 93.3768V93.3768C327.816 99.642 348.738 97.8116 366.556 88.3079V88.3079C384.374 78.8043 405.296 76.9739 424.493 83.2391L454.541 93.0455" stroke="#FFB802" stroke-width="4.1728"/>
<path d="M-15.7759 139.429L12.3374 124.597C30.038 115.258 50.7676 113.492 69.7931 119.701V119.701C88.7107 125.875 109.318 124.164 126.959 114.957L128.111 114.355C145.893 105.074 166.765 103.34 185.862 109.477V109.477C205.037 115.639 226.047 113.78 243.818 104.302V104.302C261.636 94.798 282.601 92.9442 301.799 99.2094V99.2094C320.996 105.475 341.918 103.644 359.736 94.1406V94.1406C377.554 84.6369 398.476 82.8065 417.673 89.0717L447.721 98.8782" stroke="#FFB802" stroke-width="2.0864"/>
<path d="M-13.3482 141.693L14.765 126.86C32.4656 117.522 53.1953 115.755 72.2208 121.964V121.964C91.1384 128.138 111.746 126.428 129.387 117.22L130.538 116.619C148.321 107.338 169.193 105.604 188.29 111.741V111.741C207.465 117.903 228.475 116.044 246.245 106.565V106.565C264.063 97.0618 285.029 95.208 304.226 101.473V101.473C323.424 107.738 344.346 105.908 362.164 96.4044V96.4044C379.981 86.9007 400.903 85.0703 420.101 91.3355L450.149 101.142" stroke="#FFB802" stroke-width="1.0432"/>
<path d="M-18.2273 145.093L9.88597 130.261C27.5866 120.922 48.3162 119.156 67.3417 125.365V125.365C86.2593 131.539 106.867 129.829 124.508 120.621L125.659 120.02C143.442 110.738 164.314 109.004 183.411 115.141V115.141C202.586 121.304 223.596 119.445 241.366 109.966V109.966C259.184 100.462 280.15 98.6086 299.347 104.874V104.874C318.545 111.139 339.467 109.309 357.285 99.805V99.805C375.102 90.3014 396.024 88.4709 415.222 94.7362L445.27 104.543" stroke="#FFB802" stroke-width="1.0432"/>
<path opacity="0.7" d="M1.71849 174.812L31.2021 159.673C49.2536 150.404 70.2288 148.616 89.589 154.695L90.5189 154.987C109.769 161.031 130.62 159.299 148.609 150.16L151.067 148.911C168.95 139.826 189.668 138.059 208.831 143.983L210.615 144.535C230.002 150.528 250.969 148.647 268.98 139.299L270.215 138.657C288.331 129.255 309.433 127.408 328.905 133.523L330.043 133.88C349.516 139.994 370.618 138.148 388.733 128.745L389.792 128.196C407.907 118.793 429.009 116.947 448.482 123.061L480.025 132.965" stroke="#FFB802" stroke-width="5.21601"/>
<path opacity="0.3" d="M-3.54564 180.998L25.9379 165.859C43.9895 156.59 64.9647 154.802 84.3248 160.881L85.2548 161.173C104.505 167.217 125.356 165.484 143.344 156.346L145.803 155.097C163.686 146.012 184.403 144.245 203.567 150.169L205.351 150.721C224.738 156.714 245.705 154.833 263.716 145.485L264.951 144.843C283.067 135.441 304.168 133.594 323.641 139.709L324.779 140.066C344.252 146.18 365.354 144.334 383.469 134.931L384.528 134.382C402.643 124.979 423.745 123.133 443.218 129.247L474.761 139.151" stroke="#FFB802" stroke-width="2.0864"/>
<path d="M-4.53362 182.598L24.95 167.459C43.0015 158.19 63.9767 156.402 83.3369 162.481L84.2668 162.773C103.517 168.817 124.368 167.085 142.357 157.946L144.815 156.697C162.698 147.613 183.415 145.845 202.579 151.769L204.363 152.321C223.75 158.314 244.717 156.433 262.728 147.085L263.963 146.444C282.079 137.041 303.18 135.195 322.653 141.309L323.791 141.666C343.264 147.78 364.366 145.934 382.481 136.531L383.54 135.982C401.655 126.579 422.757 124.733 442.23 130.847L473.773 140.751" stroke="#FFB802" stroke-width="0.521601"/>
<path d="M-12.6062 187.137L16.8774 171.998C34.9289 162.729 55.9041 160.941 75.2643 167.02L76.1942 167.312C95.4442 173.356 116.295 171.624 134.284 162.485L136.742 161.236C154.626 152.151 175.343 150.384 194.507 156.308L196.291 156.86C215.678 162.853 236.645 160.972 254.655 151.624L255.891 150.982C274.006 141.58 295.108 139.733 314.581 145.848L315.719 146.205C335.192 152.319 356.293 150.473 374.409 141.07L375.467 140.521C393.583 131.118 414.684 129.272 434.157 135.386L465.7 145.29" stroke="#FFB802" stroke-width="0.521601"/>
<path d="M-3.35311 189.972L26.1305 174.833C44.182 165.565 65.1572 163.776 84.5174 169.855L85.4474 170.147C104.697 176.191 125.549 174.459 143.537 165.321L145.996 164.072C163.879 154.987 184.596 153.219 203.76 159.144L205.544 159.695C224.931 165.689 245.898 163.808 263.908 154.459L265.144 153.818C283.259 144.415 304.361 142.569 323.834 148.683L324.972 149.04C344.445 155.155 365.546 153.309 383.662 143.906L384.72 143.356C402.836 133.953 423.937 132.107 443.41 138.222L474.953 148.126" stroke="#FFB802" stroke-width="0.521601"/>
<path opacity="0.4" d="M-6.35448 192.426L23.1291 177.288C41.1807 168.019 62.1558 166.231 81.516 172.309L82.446 172.601C101.696 178.646 122.547 176.913 140.536 167.775L142.994 166.526C160.877 157.441 181.595 155.674 200.758 161.598L202.542 162.15C221.929 168.143 242.896 166.262 260.907 156.914L262.143 156.272C280.258 146.869 301.36 145.023 320.832 151.137L321.97 151.495C341.443 157.609 362.545 155.763 380.66 146.36L381.719 145.811C399.834 136.408 420.936 134.562 440.409 140.676L471.952 150.58" stroke="#FFB802" stroke-width="2.0864"/>
<path d="M-6.79125 200.761L22.6923 185.622C40.7439 176.353 61.7191 174.565 81.0792 180.644L82.0092 180.936C101.259 186.98 122.11 185.247 140.099 176.109L142.557 174.86C160.441 165.775 181.158 164.008 200.322 169.932L202.106 170.484C221.493 176.477 242.46 174.596 260.47 165.248L261.706 164.606C279.821 155.204 300.923 153.357 320.396 159.472L321.534 159.829C341.007 165.943 362.108 164.097 380.224 154.694L381.282 154.145C399.398 144.742 420.499 142.896 439.972 149.01L471.515 158.914" stroke="#FFB802" stroke-width="1.0432"/>
<path d="M-9.25774 118.177L18.8555 103.344C36.5561 94.0058 57.2858 92.2393 76.3112 98.4484V98.4484C95.2289 104.622 115.836 102.912 133.477 93.7043L134.629 93.1033C152.411 83.8217 173.283 82.0877 192.38 88.2249V88.2249C211.555 94.387 232.565 92.528 250.336 83.0494V83.0494C268.154 73.5458 289.119 71.692 308.317 77.9572V77.9572C327.514 84.2224 348.436 82.392 366.254 72.8884V72.8884C384.072 63.3847 404.994 61.5543 424.191 67.8195L454.24 77.626" stroke="#FFB802" stroke-width="2.0864"/>
<path d="M-14.3301 115.299L13.7832 100.467C31.4838 91.1283 52.2134 89.3619 71.2389 95.571V95.571C90.1565 101.745 110.764 100.035 128.405 90.8269L129.557 90.2258C147.339 80.9442 168.211 79.2102 187.308 85.3474V85.3474C206.483 91.5096 227.493 89.6506 245.264 80.172V80.172C263.081 70.6684 284.047 68.8146 303.245 75.0798V75.0798C322.442 81.345 343.364 79.5146 361.182 70.0109V70.0109C379 60.5073 399.921 58.6769 419.119 64.9421L449.167 74.7485" stroke="#FFB802" stroke-width="1.0432"/>
<path opacity="0.5" d="M-34.3352 76.9125L-4.85164 61.7738C13.1999 52.505 34.1751 50.7166 53.5353 56.7955L54.4652 57.0875C73.7152 63.1318 94.5665 61.3993 112.555 52.261L115.013 51.0121C132.897 41.9272 153.614 40.1598 172.778 46.0842L174.562 46.6357C193.949 52.6291 214.916 50.748 232.926 41.3996L234.162 40.7582C252.277 31.3554 273.379 29.5092 292.852 35.6235L293.99 35.9809C313.463 42.0952 334.564 40.249 352.68 30.8462L353.738 30.2966C371.854 20.8938 392.955 19.0477 412.428 25.1619L443.971 35.0661" stroke="#FFB802" stroke-width="2.0864"/>
<path d="M-27.0304 72.0721L2.4532 56.9335C20.5048 47.6647 41.4799 45.8763 60.8401 51.9552L61.7701 52.2472C81.02 58.2915 101.871 56.559 119.86 47.4207L122.318 46.1718C140.202 37.0869 160.919 35.3195 180.082 41.2438L181.867 41.7954C201.253 47.7887 222.22 45.9077 240.231 36.5593L241.467 35.9179C259.582 26.5151 280.684 24.6689 300.156 30.7832L301.295 31.1405C320.767 37.2548 341.869 35.4087 359.984 26.0058L361.043 25.4563C379.158 16.0535 400.26 14.2073 419.733 20.3216L451.276 30.2258" stroke="#FFB802" stroke-width="1.0432"/>
<path opacity="0.7" d="M-26.075 53.8412L3.40861 38.7025C21.4602 29.4338 42.4354 27.6453 61.7955 33.7242L62.7255 34.0162C81.9754 40.0605 102.827 38.3281 120.815 29.1898L123.274 27.9408C141.157 18.8559 161.874 17.0885 181.038 23.0129L182.822 23.5644C202.209 29.5578 223.176 27.6767 241.186 18.3283L242.422 17.6869C260.537 8.28413 281.639 6.43796 301.112 12.5522L302.25 12.9096C321.723 19.0239 342.825 17.1777 360.94 7.77489L361.999 7.22534C380.114 -2.17747 401.216 -4.02364 420.688 2.09064L452.231 11.9948" stroke="#FFB802" stroke-width="1.0432"/>
<path opacity="0.8" d="M-34.7447 84.7257L-5.26113 69.587C12.7904 60.3183 33.7656 58.5298 53.1258 64.6087L54.0558 64.9008C73.3057 70.945 94.157 69.2126 112.145 60.0743L114.604 58.8253C132.487 49.7405 153.204 47.9731 172.368 53.8974L174.152 54.449C193.539 60.4423 214.506 58.5613 232.517 49.2128L233.752 48.5715C251.868 39.1686 272.969 37.3225 292.442 43.4368L293.58 43.7941C313.053 49.9084 334.155 48.0622 352.27 38.6594L353.329 38.1099C371.444 28.7071 392.546 26.8609 412.019 32.9752L443.562 42.8793" stroke="#FFB802" stroke-width="2.0864"/>
<path opacity="0.7" d="M-32.8091 97.624L-3.32552 82.4854C14.726 73.2166 35.7012 71.4282 55.0614 77.5071L55.9914 77.7991C75.2413 83.8434 96.0926 82.1109 114.081 72.9726L116.54 71.7236C134.423 62.6388 155.14 60.8714 174.304 66.7957L176.088 67.3473C195.475 73.3406 216.442 71.4596 234.452 62.1112L235.688 61.4698C253.803 52.067 274.905 50.2208 294.378 56.3351L295.516 56.6924C314.989 62.8067 336.09 60.9605 354.206 51.5577L355.264 51.0082C373.38 41.6054 394.482 39.7592 413.954 45.8735L445.497 55.7776" stroke="#FFB802" stroke-width="2.0864"/>
<path d="M-41.7391 81.6074L-12.2555 66.4688C5.79602 57.2 26.7712 55.4116 46.1314 61.4905L47.0613 61.7825C66.3113 67.8267 87.1626 66.0943 105.151 56.956L107.61 55.707C125.493 46.6222 146.21 44.8548 165.374 50.7791L167.158 51.3307C186.545 57.324 207.512 55.443 225.522 46.0946L226.758 45.4532C244.873 36.0504 265.975 34.2042 285.448 40.3185L286.586 40.6758C306.059 46.7901 327.16 44.9439 345.276 35.5411L346.334 34.9916C364.45 25.5888 385.551 23.7426 405.024 29.8569L436.567 39.761" stroke="#FFB802" stroke-width="1.0432"/>
</g>
<g filter="url(#filter2_f_104_208)">
<path d="M87.8415 0.602179V0.602179C29.3992 75.2646 78.9411 184.832 173.601 190.267L203.951 192.01L-64.1454 186.189L87.8415 0.602179Z" fill="url(#paint1_linear_104_208)" fill-opacity="0.4"/>
</g>
<g opacity="0.2" filter="url(#filter3_f_104_208)">
<path d="M128.159 211.557V211.557C191.103 140.649 148.427 28.2296 54.2846 16.9544L24.1002 13.3393L291.324 35.7177L128.159 211.557Z" fill="#FFEAB3"/>
</g>
</g>
</g>
<defs>
<filter id="filter0_d_104_208" x="0.854725" y="0.854725" width="211.251" height="211.251" filterUnits="userSpaceOnUse" color-interpolation-filters="sRGB">
<feFlood flood-opacity="0" result="BackgroundImageFix"/>
<feColorMatrix in="SourceAlpha" type="matrix" values="0 0 0 0 0 0 0 0 0 0 0 0 0 0 0 0 0 0 127 0" result="hardAlpha"/>
<feOffset/>
<feGaussianBlur stdDeviation="10.432"/>
<feComposite in2="hardAlpha" operator="out"/>
<feColorMatrix type="matrix" values="0 0 0 0 0.916667 0 0 0 0 0.420489 0 0 0 0 0.00763887 0 0 0 1 0"/>
<feBlend mode="normal" in2="BackgroundImageFix" result="effect1_dropShadow_104_208"/>
<feBlend mode="normal" in="SourceGraphic" in2="effect1_dropShadow_104_208" result="shape"/>
</filter>
<filter id="filter1_f_104_208" x="-43.5422" y="-3.54112" width="525.913" height="206.331" filterUnits="userSpaceOnUse" color-interpolation-filters="sRGB">
<feFlood flood-opacity="0" result="BackgroundImageFix"/>
<feBlend mode="normal" in="SourceGraphic" in2="BackgroundImageFix" result="shape"/>
<feGaussianBlur stdDeviation="0.782401" result="effect1_foregroundBlur_104_208"/>
</filter>
<filter id="filter2_f_104_208" x="-74.5774" y="-9.82984" width="288.96" height="212.272" filterUnits="userSpaceOnUse" color-interpolation-filters="sRGB">
<feFlood flood-opacity="0" result="BackgroundImageFix"/>
<feBlend mode="normal" in="SourceGraphic" in2="BackgroundImageFix" result="shape"/>
<feGaussianBlur stdDeviation="5.21601" result="effect1_foregroundBlur_104_208"/>
</filter>
<filter id="filter3_f_104_208" x="11.0602" y="0.299218" width="293.304" height="224.298" filterUnits="userSpaceOnUse" color-interpolation-filters="sRGB">
<feFlood flood-opacity="0" result="BackgroundImageFix"/>
<feBlend mode="normal" in="SourceGraphic" in2="BackgroundImageFix" result="shape"/>
<feGaussianBlur stdDeviation="6.52001" result="effect1_foregroundBlur_104_208"/>
</filter>
<linearGradient id="paint0_linear_104_208" x1="61.8658" y1="116.671" x2="195.006" y2="105.359" gradientUnits="userSpaceOnUse">
<stop stop-color="#F5610F"/>
<stop offset="1" stop-color="#FF9104"/>
</linearGradient>
<linearGradient id="paint1_linear_104_208" x1="42.0561" y1="139.797" x2="89.7611" y2="124.016" gradientUnits="userSpaceOnUse">
<stop stop-color="#772B06"/>
<stop offset="1" stop-color="#FF9A06"/>
</linearGradient>
<clipPath id="clip0_104_208">
<rect x="21.7188" y="35.3569" width="156.48" height="156.48" rx="78.2401" transform="rotate(-5 21.7188 35.3569)" fill="white"/>
</clipPath>
</defs>
</svg>
